<svg width="20" height="20" viewBox="0 0 20 20" fill="none" xmlns="http://www.w3.org/2000/svg">
<path d="M3.33301 9.77149C3.33301 9.45508 3.56814 9.19358 3.8732 9.1522L3.95801 9.14649L14.9447 9.14699L10.9755 5.19405C10.7309 4.9505 10.7301 4.55477 10.9736 4.31017C11.195 4.0878 11.5422 4.06688 11.7873 4.2479L11.8575 4.30827L16.8992 9.32827C16.9314 9.36037 16.9594 9.39511 16.9832 9.43181C16.9899 9.44285 16.9967 9.45415 17.0032 9.46568C17.0092 9.47556 17.0145 9.48581 17.0196 9.49619C17.0267 9.51128 17.0336 9.52687 17.0398 9.54278C17.0449 9.55504 17.0492 9.56697 17.053 9.579C17.0576 9.59391 17.0621 9.6098 17.066 9.62593C17.0688 9.6372 17.0711 9.64804 17.0731 9.65892C17.0758 9.67511 17.0782 9.69187 17.0799 9.70883C17.0814 9.72176 17.0822 9.73457 17.0827 9.7474C17.0828 9.75517 17.083 9.76331 17.083 9.77149L17.0827 9.7957C17.0822 9.80797 17.0814 9.82023 17.0802 9.83245L17.083 9.77149C17.083 9.81093 17.0794 9.84952 17.0724 9.88693C17.0707 9.89587 17.0688 9.90504 17.0667 9.91418C17.0622 9.93299 17.0571 9.95111 17.0512 9.96887C17.0483 9.9777 17.0449 9.98713 17.0413 9.99649C17.034 10.0153 17.0261 10.0332 17.0173 10.0507C17.0133 10.0589 17.0087 10.0675 17.004 10.076C16.9962 10.0899 16.9881 10.1031 16.9796 10.1159C16.9736 10.125 16.967 10.1345 16.96 10.1438L16.9546 10.151C16.9378 10.173 16.9195 10.1939 16.8999 10.2134L16.8992 10.214L11.8575 15.2348C11.613 15.4784 11.2172 15.4776 10.9737 15.233C10.7522 15.0107 10.7328 14.6634 10.9148 14.4191L10.9755 14.3491L14.943 10.397L3.95801 10.3965C3.61283 10.3965 3.33301 10.1167 3.33301 9.77149Z" fill="#DB3539" stroke="#DB3539" stroke-width="0.5"/>
</svg>
