<svg width="19" height="19" viewBox="0 0 19 19" fill="none" xmlns="http://www.w3.org/2000/svg">
<path d="M9.50018 12.6667C9.3152 12.667 9.13594 12.6026 8.99351 12.4846L4.24351 8.52627C4.08184 8.39189 3.98017 8.19879 3.96087 7.98945C3.94157 7.78012 4.00622 7.57169 4.14059 7.41001C4.27497 7.24834 4.46807 7.14667 4.6774 7.12737C4.88674 7.10807 5.09517 7.17272 5.25684 7.3071L9.50018 10.8538L13.7435 7.43377C13.8245 7.368 13.9177 7.3189 14.0177 7.28926C14.1177 7.25963 14.2226 7.25005 14.3263 7.26109C14.4301 7.27213 14.5306 7.30355 14.6221 7.35356C14.7137 7.40358 14.7944 7.47119 14.8598 7.55251C14.9323 7.63392 14.9872 7.72941 15.021 7.83302C15.0549 7.93663 15.067 8.04612 15.0566 8.15462C15.0462 8.26313 15.0135 8.36832 14.9606 8.46361C14.9076 8.55889 14.8356 8.64221 14.7489 8.70835L9.99893 12.5321C9.8524 12.6315 9.6768 12.6789 9.50018 12.6667Z" fill="white"/>
</svg>
