<svg width="30" height="30" viewBox="0 0 30 30" fill="none" xmlns="http://www.w3.org/2000/svg">
<path d="M27.3636 2.64844C27.1207 2.40272 26.8313 2.20779 26.5123 2.07501C26.1933 1.94222 25.8511 1.87424 25.5056 1.87501H18.3026C17.8301 1.87589 17.3771 2.06306 17.0417 2.3959L2.64228 16.7924C2.15095 17.2847 1.875 17.9519 1.875 18.6475C1.875 19.343 2.15095 20.0102 2.64228 20.5025L9.49775 27.358C9.99022 27.8496 10.6576 28.1256 11.3534 28.1256C12.0492 28.1256 12.7166 27.8496 13.2091 27.358L27.6026 12.9674C27.9361 12.6326 28.124 12.1796 28.1253 11.707V4.5C28.1274 4.15629 28.0612 3.81559 27.9304 3.49772C27.7996 3.17984 27.607 2.89115 27.3636 2.64844ZM22.5003 9.375C22.1294 9.375 21.7669 9.26503 21.4586 9.05901C21.1503 8.85298 20.9099 8.56014 20.768 8.21753C20.6261 7.87492 20.589 7.49792 20.6613 7.13421C20.7337 6.77049 20.9122 6.4364 21.1745 6.17418C21.4367 5.91195 21.7708 5.73338 22.1345 5.66103C22.4982 5.58868 22.8752 5.62581 23.2178 5.76773C23.5604 5.90964 23.8533 6.14997 24.0593 6.45831C24.2653 6.76665 24.3753 7.12916 24.3753 7.5C24.3753 7.99728 24.1777 8.4742 23.8261 8.82583C23.4745 9.17746 22.9976 9.375 22.5003 9.375Z" fill="white"/>
</svg>
