<svg width="183" height="41" viewBox="0 0 183 41" fill="none" xmlns="http://www.w3.org/2000/svg">
<path fill-rule="evenodd" clip-rule="evenodd" d="M62.991 9.69494C53.5057 9.69494 51.3293 10.7832 49.6181 15.759L45.1087 27.8871H50.24L53.0383 20.5794H63.9228L65.323 17.0027H54.2831L54.7494 15.9145C55.5267 13.737 56.7704 13.2706 59.8807 13.2706H67.8103L69.2095 9.69391H62.991V9.69494ZM71.5425 9.69494L64.7011 27.8871H69.9879L76.6738 9.69494H71.5425ZM96.887 9.69494H78.6948L77.4511 13.2716H83.8261L78.3839 27.8871H83.6706L89.1128 13.2716H95.4878L96.887 9.69494ZM106.528 13.2716C109.172 13.2716 111.036 13.1161 110.259 15.4491C109.949 16.2264 108.549 20.2685 108.549 20.2685L105.751 27.8882H110.883C110.883 27.8882 115.081 16.5374 115.547 15.4502C116.946 11.2516 113.525 9.54155 107.927 9.54155H107.771C102.175 9.54155 98.4416 10.7853 96.5771 14.5174C96.1097 15.4502 91.6013 27.8892 91.6013 27.8892H96.7315L99.5309 20.2695C99.5309 20.2695 101.086 16.2275 101.553 15.4502C102.486 13.738 103.885 13.2716 106.528 13.2716ZM130.785 9.69494C121.455 9.69494 119.123 12.0269 117.879 15.6035L115.547 21.8241C114.925 23.3787 114.925 24.6214 115.702 25.5552C116.789 26.9544 119.589 27.8871 123.631 27.8871H130.163L131.406 24.3125H123.943C122.233 24.3125 120.987 24.0006 120.678 23.5332C120.522 23.2233 120.522 23.0678 120.522 22.7559C120.522 22.446 120.522 22.134 120.678 21.6686C120.678 21.6686 120.988 20.8913 121.143 20.5794H132.805L134.206 17.0027H122.544L123.01 15.9145C123.787 13.737 125.966 13.2706 130.318 13.2706H135.605L136.85 9.69391H130.785V9.69494ZM143.845 9.69494C140.58 9.69494 138.557 12.0269 137.471 14.3598L136.849 15.9145C136.382 17.1582 136.537 18.5573 137.159 19.4901C137.781 20.4229 138.869 20.5783 140.115 20.5783H147.732C148.822 20.5783 149.289 20.7338 149.134 21.5111C148.822 22.4439 148.201 24.155 146.334 24.3105H133.74L132.341 27.8851H146.49C149.134 27.8851 151.778 26.7979 153.02 23.5311L153.642 21.9765C154.11 20.7338 154.11 19.3336 153.489 18.4008C152.709 17.4681 151.31 17.0006 150.068 17.0006H143.847C142.292 17.0006 140.893 17.3116 141.98 14.9796C142.604 13.8914 143.382 13.2695 144.78 13.2695H155.509L156.908 9.69286H143.845V9.69494ZM164.369 9.69494C161.104 9.69494 159.083 12.0269 157.995 14.3598L157.373 15.9145C156.906 17.1582 156.906 18.5573 157.685 19.4901C158.307 20.4229 159.395 20.5783 160.639 20.5783H168.259C169.348 20.5783 169.813 20.7338 169.658 21.5111C169.348 22.4439 168.725 24.155 166.861 24.3105H154.266L152.865 27.8851H167.014C169.658 27.8851 172.302 26.7979 173.544 23.5311L174.168 21.9765C174.634 20.7338 174.634 19.3336 173.856 18.4008C173.235 17.4681 171.836 17.0006 170.592 17.0006H164.371C162.816 17.0006 161.417 17.3116 162.507 14.9796C163.128 13.8914 163.906 13.2695 165.304 13.2695H176.035L177.434 9.69286H164.369V9.69494ZM180.385 9.69494C179.298 9.69494 178.365 10.4722 178.365 11.405C178.365 12.4933 179.298 13.2706 180.385 13.2706C181.474 13.2706 182.251 12.4933 182.251 11.405C182.251 10.4733 181.474 9.69494 180.385 9.69494ZM180.231 10.0059H180.385C181.162 10.0059 181.939 10.6277 181.939 11.405C181.939 12.3378 181.162 12.9596 180.385 12.9596C179.452 12.9596 178.83 12.3368 178.83 11.405C178.83 10.6287 179.452 10.0059 180.231 10.0059ZM179.607 10.4733V12.4943H179.919V11.5615H180.385L180.852 12.4943H181.318L180.696 11.5615C181.008 11.5615 181.161 11.4061 181.161 10.9397C181.161 10.6287 181.008 10.4733 180.384 10.4733H179.607ZM179.919 11.2506V10.6287H180.385C180.697 10.6287 180.852 10.7842 180.852 10.9397C180.852 11.2506 180.697 11.2506 180.54 11.2506H179.919ZM2.34929 17.4701C-0.450064 23.0678 -0.605527 28.9764 1.72641 33.3304C3.90392 37.3724 7.94594 40.0163 13.2327 40.7936C24.5835 42.3483 38.1108 34.5731 43.3976 23.3787C46.0404 17.78 46.1969 12.0269 43.864 7.51846C41.6875 3.47541 37.6444 0.832552 32.3577 0.209666C21.1644 -1.34496 7.63605 6.27477 2.34929 17.4701Z" fill="#D0D0D0"/>
<path fill-rule="evenodd" clip-rule="evenodd" d="M7.63576 20.2674C5.92568 25.2433 6.2366 29.9092 8.724 33.3304C11.0559 36.5951 14.7881 38.3063 19.453 38.3063C29.2481 38.3063 40.1326 30.2212 43.5538 20.4239C45.2639 15.4492 44.954 10.7842 42.4655 7.36304C40.1336 4.09833 36.4015 2.38721 31.7366 2.38721C21.9414 2.38721 11.057 10.4733 7.63576 20.2674Z" fill="#D0D0D0"/>
<path fill-rule="evenodd" clip-rule="evenodd" d="M11.6794 21.5122C11.9903 22.2895 12.9231 22.6015 14.0113 22.6015H24.8957L25.3621 21.5122H11.6794ZM34.381 21.5122L31.8936 27.8862H35.0028L37.4902 21.5122H34.381ZM24.2739 24.0006L23.1856 26.8C23.1856 26.9534 23.0302 27.2653 22.7193 27.2653H21.3191L21.1646 27.1099V26.9544L22.2529 24.0006H21.3201L20.2319 26.9544C20.2319 27.1099 20.2319 27.4218 20.3873 27.5783C20.5428 27.8882 20.6982 27.8882 21.1646 27.8882H22.5638C23.3411 27.8882 23.964 27.4229 24.1184 27.1109L25.2066 24.0017H24.2739V24.0006ZM18.2098 24.0006H17.4325C16.8106 24.0006 16.1888 24.466 16.0333 24.7779L15.1006 26.9544C15.1006 27.1099 15.1006 27.4218 15.256 27.5783C15.4115 27.8882 15.7224 27.8882 16.0333 27.8882H17.588C18.2108 27.8882 18.8317 27.5783 18.9882 27.1109L19.7655 24.9344C19.9209 24.779 19.9209 24.467 19.7655 24.3126C19.61 24.1571 19.2991 24.0006 18.9882 24.0006H18.2098ZM16.1878 27.2653C16.0323 27.1099 16.0323 27.1099 16.1878 26.9534L16.3432 26.488L16.8096 25.0889C16.9651 25.0889 16.9651 24.7769 17.4315 24.7769H18.8306V24.9324L18.0533 26.799C18.0533 26.9524 17.8978 27.2643 17.5869 27.2643H16.3432L16.1878 27.2653ZM28.9388 24.0006H27.8505C27.2287 24.0006 26.4514 24.1561 26.4514 24.6225L25.0512 27.8872H26.1405C26.1405 27.8872 26.6068 26.8 26.6068 26.6445H27.6951C27.8505 26.6445 28.3169 26.6445 28.6279 26.9544L29.2497 27.8872H30.4934L30.1825 27.5773C30.1825 27.5773 29.8716 26.8 29.5606 26.6445L29.4052 26.4891C29.8716 26.4891 30.3379 26.1771 30.3379 26.0237L30.9598 24.6225C30.9598 24.6225 30.9598 24.467 30.8043 24.3126C30.6489 24.1571 30.1825 24.0006 29.7161 24.0006H28.9388ZM27.2277 24.9334C27.3831 24.7779 27.5386 24.6215 27.8495 24.6215H29.4041C29.8705 24.6215 29.8705 24.7769 29.8705 24.7769L29.4041 25.7097C29.4041 25.7097 29.2487 25.8651 28.9377 25.8651H27.2277C26.9167 25.8651 26.9167 25.7097 26.9167 25.7097L27.2277 24.9334ZM14.0113 24.0006L13.3894 25.5553H11.2119L11.6783 24.0006H10.7455L9.19092 27.8872H10.2792L10.901 26.3326H13.0785L12.6121 27.8872H13.5449L15.0995 24.0006H14.0113Z" fill="#D0D0D0"/>
<path fill-rule="evenodd" clip-rule="evenodd" d="M25.3619 21.5121L25.9838 19.9575H15.7222C14.1676 19.9575 15.4113 17.3136 16.9659 17.3136H22.2527C23.1854 17.3136 24.1182 17.3136 25.051 16.6917C25.9838 15.9144 26.7611 14.9816 27.2285 14.0478L27.5394 12.9596C28.3167 11.2495 27.5394 9.69385 25.2075 9.69385H17.1224L16.0342 12.1812H23.3419C25.364 12.1812 24.5856 13.114 24.4312 13.7359C24.1203 14.6686 23.1875 14.8241 22.0993 14.8241H17.2789C16.3461 14.8241 15.4134 15.135 14.3241 15.9134C13.3913 16.5352 12.614 17.468 12.3031 18.4008L11.8367 19.489C11.5258 20.4218 11.5258 21.0436 11.6812 21.511H25.3619V21.5121ZM37.49 21.5121V21.3566H41.5331L42.3104 18.7138H38.5783L40.1329 14.6717H37.0237L35.469 18.7138H32.3598C30.6497 18.7138 30.9596 17.6255 30.9596 17.6255L34.3808 9.69592H31.115L27.5384 18.2474C27.2275 18.8703 27.384 19.6476 27.8493 20.1129C28.3157 20.8913 29.4039 21.3566 30.8041 21.3566H34.3808V21.5121H37.49Z" fill="#D0D0D0"/>
</svg>
