<svg width="30" height="30" viewBox="0 0 30 30" fill="none" xmlns="http://www.w3.org/2000/svg">
<path d="M27.3633 10.3124C27.0748 10.303 26.7885 10.3649 26.5297 10.4927C26.2709 10.6205 26.0476 10.8101 25.8797 11.0448C25.8654 11.0652 25.845 11.0806 25.8215 11.0886C25.7979 11.0967 25.7723 11.097 25.7486 11.0896C25.7248 11.0821 25.704 11.0673 25.6892 11.0472C25.6745 11.0272 25.6665 11.0029 25.6664 10.978V8.83054C25.6664 7.61472 24.709 6.59168 23.4937 6.56297C23.1967 6.55546 22.9012 6.60749 22.6245 6.71598C22.3479 6.82447 22.0958 6.98724 21.8831 7.19468C21.6703 7.40213 21.5012 7.65006 21.3858 7.92386C21.2704 8.19766 21.2109 8.4918 21.2109 8.78894V13.5936C21.2109 13.6247 21.1986 13.6545 21.1766 13.6765C21.1546 13.6985 21.1248 13.7108 21.0938 13.7108H8.90625C8.87517 13.7108 8.84536 13.6985 8.82339 13.6765C8.80141 13.6545 8.78906 13.6247 8.78906 13.5936V8.83054C8.78906 7.61472 7.83164 6.59168 6.61641 6.56297C6.31955 6.55578 6.02426 6.60804 5.74791 6.71667C5.47156 6.82531 5.21973 6.98812 5.00723 7.19554C4.79474 7.40295 4.62589 7.65077 4.5106 7.92442C4.39531 8.19806 4.33593 8.492 4.33594 8.78894V10.9792C4.33588 11.0041 4.32788 11.0283 4.31311 11.0484C4.29833 11.0685 4.27755 11.0833 4.25377 11.0907C4.23 11.0982 4.20447 11.0979 4.18089 11.0898C4.15732 11.0818 4.13692 11.0664 4.12266 11.046C3.9546 10.8107 3.73101 10.6206 3.47177 10.4927C3.21253 10.3647 2.92567 10.3027 2.63672 10.3124C1.68164 10.3423 0.9375 11.1509 0.9375 12.1065V17.8909C0.9375 18.8466 1.68398 19.6552 2.63672 19.685C2.92518 19.6944 3.21149 19.6325 3.47028 19.5047C3.72908 19.377 3.95235 19.1873 4.12031 18.9526C4.13423 18.931 4.15485 18.9146 4.17902 18.9058C4.20319 18.8971 4.22956 18.8966 4.25407 18.9043C4.27858 18.912 4.29987 18.9276 4.31466 18.9486C4.32945 18.9696 4.33693 18.9949 4.33594 19.0206V21.1692C4.33594 22.3827 5.29336 23.4081 6.50859 23.4374C6.80549 23.4446 7.10083 23.3923 7.37723 23.2836C7.65362 23.1749 7.90548 23.0121 8.11798 22.8046C8.33047 22.5971 8.49932 22.3492 8.61457 22.0755C8.72982 21.8018 8.78915 21.5078 8.78906 21.2108V16.4061C8.78906 16.3751 8.80141 16.3452 8.82339 16.3233C8.84536 16.3013 8.87517 16.2889 8.90625 16.2889H21.0938C21.1248 16.2889 21.1546 16.3013 21.1766 16.3233C21.1986 16.3452 21.2109 16.3751 21.2109 16.4061V21.1692C21.2109 22.385 22.1684 23.4081 23.3836 23.4368C23.6804 23.444 23.9757 23.3917 24.2521 23.2831C24.5284 23.1745 24.7803 23.0116 24.9928 22.8042C25.2053 22.5968 25.3741 22.349 25.4894 22.0753C25.6047 21.8017 25.6641 21.5078 25.6641 21.2108V19.0206C25.6641 18.9957 25.6721 18.9714 25.6869 18.9514C25.7017 18.9313 25.7225 18.9165 25.7462 18.909C25.77 18.9016 25.7955 18.9019 25.8191 18.91C25.8427 18.918 25.8631 18.9334 25.8773 18.9538C26.0454 19.189 26.269 19.3791 26.5282 19.5071C26.7875 19.6351 27.0743 19.697 27.3633 19.6874C28.3184 19.6575 29.0625 18.8489 29.0625 17.8932V12.1077C29.0625 11.152 28.316 10.3434 27.3633 10.3124Z" fill="white"/>
</svg>
