<svg width="16" height="16" viewBox="0 0 16 16" fill="none" xmlns="http://www.w3.org/2000/svg">
<path d="M13.6001 3.33301H2.40013C2.15259 3.33301 1.9152 3.43134 1.74016 3.60637C1.56513 3.78141 1.4668 4.01881 1.4668 4.26634V11.733C1.4668 11.9805 1.56513 12.2179 1.74016 12.393C1.9152 12.568 2.15259 12.6663 2.40013 12.6663H13.6001C13.8477 12.6663 14.0851 12.568 14.2601 12.393C14.4351 12.2179 14.5335 11.9805 14.5335 11.733V4.26634C14.5335 4.01881 14.4351 3.78141 14.2601 3.60637C14.0851 3.43134 13.8477 3.33301 13.6001 3.33301ZM12.5735 4.26634L8.00013 7.43034L3.4268 4.26634H12.5735ZM2.40013 11.733V4.69101L7.73413 8.38234C7.81225 8.43653 7.90506 8.46557 8.00013 8.46557C8.09521 8.46557 8.18801 8.43653 8.26613 8.38234L13.6001 4.69101V11.733H2.40013Z" fill="white"/>
</svg>
