<svg width="45" height="32" viewBox="0 0 45 32" fill="none" xmlns="http://www.w3.org/2000/svg">
<rect x="0.720703" width="43.9535" height="31.3953" rx="2.51163" fill="#0742A6"/>
<path fill-rule="evenodd" clip-rule="evenodd" d="M20.8281 19.9319H18.6055L19.9956 11.5605H22.2181L20.8281 19.9319Z" fill="white"/>
<path fill-rule="evenodd" clip-rule="evenodd" d="M28.885 11.7656C28.4466 11.5962 27.7512 11.4092 26.8915 11.4092C24.6966 11.4092 23.151 12.549 23.1415 14.1787C23.1232 15.3811 24.2481 16.0489 25.0894 16.4498C25.9493 16.8595 26.2416 17.1269 26.2416 17.492C26.2328 18.0528 25.5467 18.3113 24.9068 18.3113C24.0195 18.3113 23.544 18.1781 22.8215 17.8661L22.5288 17.7323L22.2178 19.6115C22.7391 19.8428 23.6995 20.048 24.6966 20.057C27.0287 20.057 28.547 18.9348 28.5649 17.1981C28.5738 16.2451 27.9799 15.5149 26.6993 14.9183C25.9219 14.5352 25.4459 14.277 25.4459 13.885C25.455 13.5288 25.8485 13.1638 26.7261 13.1638C27.4486 13.146 27.9795 13.3151 28.3817 13.4844L28.5827 13.5733L28.885 11.7656Z" fill="white"/>
<path fill-rule="evenodd" clip-rule="evenodd" d="M32.8635 11.5605H34.5826L36.3757 19.9318H34.3178C34.3178 19.9318 34.1164 18.9699 34.0526 18.676H31.199C31.1164 18.8985 30.7325 19.9318 30.7325 19.9318H28.4004L31.7018 12.2551C31.9305 11.7118 32.3333 11.5605 32.8635 11.5605ZM32.7265 14.6241C32.7265 14.6241 32.0222 16.4854 31.8391 16.9663H33.6865C33.5951 16.5477 33.1742 14.5439 33.1742 14.5439L33.0189 13.8226C32.9535 14.0084 32.8589 14.2637 32.7951 14.436C32.7518 14.5527 32.7227 14.6313 32.7265 14.6241Z" fill="white"/>
<path fill-rule="evenodd" clip-rule="evenodd" d="M16.7486 11.5605L14.572 17.269L14.3341 16.1113C13.9317 14.7754 12.6696 13.324 11.2612 12.6023L13.255 19.923H15.6053L19.0988 11.5605H16.7486V11.5605Z" fill="white"/>
<path fill-rule="evenodd" clip-rule="evenodd" d="M12.551 11.5605H8.97506L8.93848 11.7297C11.7279 12.4244 13.5753 14.0989 14.3344 16.1116L13.557 12.2642C13.429 11.7296 13.0357 11.5782 12.551 11.5605Z" fill="white"/>
</svg>
