<svg width="45" height="32" viewBox="0 0 45 32" fill="none" xmlns="http://www.w3.org/2000/svg">
<rect x="0.953125" width="43.9535" height="31.3953" rx="2.51163" fill="#003D79"/>
<path fill-rule="evenodd" clip-rule="evenodd" d="M4.13243 16.6264C4.13243 16.0634 4.12252 15.5909 4.09277 15.1696H5.12466L5.17304 15.8934H5.20199C5.43587 15.5109 5.86357 15.0586 6.66138 15.0586C7.28409 15.0586 7.77049 15.4212 7.97443 15.9637H7.99446C8.16012 15.6924 8.35405 15.4916 8.57762 15.3504C8.84054 15.1597 9.14224 15.0586 9.53137 15.0586C10.3192 15.0586 11.1164 15.6112 11.1164 17.179V20.0627H9.94916V17.3602C9.94916 16.5464 9.67721 16.0634 9.10357 16.0634C8.69431 16.0634 8.39242 16.3654 8.2668 16.7173C8.23726 16.8375 8.20811 16.9883 8.20811 17.128V20.0627H7.0405V17.2291C7.0405 16.5464 6.77827 16.0634 6.22366 16.0634C5.77613 16.0634 5.47493 16.4257 5.36766 16.7666C5.31868 16.888 5.29905 17.0283 5.29905 17.1687V20.0627H4.13243V16.6264Z" fill="white"/>
<path fill-rule="evenodd" clip-rule="evenodd" d="M15.6643 18.8882C15.6643 19.33 15.6837 19.7614 15.7324 20.0637H14.6523L14.5747 19.5212H14.5452C14.2535 19.9034 13.7574 20.1743 13.1446 20.1743C12.191 20.1743 11.6562 19.4614 11.6562 18.7174C11.6562 17.4811 12.7162 16.8587 14.4674 16.8686V16.7879C14.4674 16.4662 14.3408 15.934 13.5043 15.934C13.0371 15.934 12.5505 16.0849 12.2297 16.2955L11.9959 15.4923C12.3468 15.2708 12.9602 15.0596 13.7086 15.0596C15.2268 15.0596 15.6643 16.055 15.6643 17.1196V18.8882ZM14.4968 17.6726C13.6506 17.6523 12.8434 17.8432 12.8434 18.5869C12.8434 19.0687 13.1449 19.2902 13.5244 19.2902C14.0005 19.2902 14.3513 18.9685 14.4579 18.617C14.4869 18.5265 14.4968 18.4257 14.4968 18.3456V17.6726Z" fill="white"/>
<path fill-rule="evenodd" clip-rule="evenodd" d="M16.4912 16.6264C16.4912 16.0634 16.4805 15.5909 16.4521 15.1696H17.5019L17.5606 15.903H17.5893C17.7939 15.5217 18.3094 15.0586 19.0972 15.0586C19.9243 15.0586 20.7803 15.6112 20.7803 17.159V20.0627H19.584V17.3C19.584 16.5961 19.3311 16.0634 18.6792 16.0634C18.2025 16.0634 17.8719 16.4152 17.7451 16.7871C17.7068 16.8979 17.6967 17.049 17.6967 17.1887V20.0627H16.4912V16.6264Z" fill="white"/>
<path fill-rule="evenodd" clip-rule="evenodd" d="M25.9683 13.2041V18.6864C25.9683 19.1888 25.9875 19.7323 26.007 20.0635H24.9369L24.889 19.2899H24.8691C24.5869 19.8328 24.0121 20.1741 23.3221 20.1741C22.1942 20.1741 21.2989 19.1795 21.2989 17.6723C21.289 16.0343 22.2812 15.0594 23.4193 15.0594C24.0708 15.0594 24.5382 15.3411 24.7519 15.7031H24.7716V13.2041H25.9683ZM24.7717 17.2095C24.7717 17.1101 24.7617 16.989 24.7429 16.8888C24.6358 16.4065 24.2561 16.0144 23.7113 16.0144C22.9429 16.0144 22.5148 16.7181 22.5148 17.6325C22.5148 18.5265 22.9429 19.1797 23.7016 19.1797C24.1878 19.1797 24.6161 18.8382 24.7327 18.3058C24.7617 18.1948 24.7717 18.0744 24.7717 17.9433V17.2095Z" fill="white"/>
<path fill-rule="evenodd" clip-rule="evenodd" d="M26.8135 20.0627H28.0209V15.1699H26.8135V20.0627Z" fill="white"/>
<path fill-rule="evenodd" clip-rule="evenodd" d="M28.8673 16.7468C28.8673 16.0839 28.8572 15.611 28.8281 15.1693H29.8692L29.9073 16.1035H29.9477C30.1807 15.4102 30.7353 15.1693 31.241 15.1693C31.3575 15.1693 31.4255 15.1487 31.523 15.1693V16.2548C31.4255 16.2347 31.3187 16.2147 31.1728 16.2147C30.5989 16.2147 30.2095 16.5961 30.1026 17.1484C30.0837 17.259 30.064 17.3902 30.064 17.5315V20.0627H28.8673V16.7468Z" fill="white"/>
<path fill-rule="evenodd" clip-rule="evenodd" d="M32.0771 20.0627H33.2828V15.1699H32.0771V20.0627Z" fill="white"/>
<path fill-rule="evenodd" clip-rule="evenodd" d="M31.7917 9.25451C31.0675 9.68769 29.3592 10.6997 28.7216 11.0765V11.0765C28.3329 11.281 27.4328 11.3703 26.9237 10.6613V10.6613C26.9146 10.6485 26.2465 9.78631 26.2193 9.75385V9.75385C26.2001 9.73091 25.7683 9.06926 24.806 9.04857V9.04857C24.6638 9.04509 23.9569 9.0412 23.2672 9.44612V9.44612C22.3504 9.98713 20.2182 11.2462 20.2182 11.2462V11.2462C20.2176 11.2462 20.2176 11.2474 20.2166 11.2474V11.2474C19.3401 11.7653 18.6572 12.1686 18.6572 12.1686V12.1686L19.4641 13.1922C19.8415 13.6762 20.6926 14.0507 21.4308 13.613V13.613C21.4308 13.613 24.1581 11.9817 24.1681 11.977V11.977C25.3476 11.3088 26.2577 11.3088 26.8618 11.5574V11.5574C27.404 11.7941 27.8758 12.3838 27.8758 12.3838V12.3838C27.8758 12.3838 28.4922 13.1729 28.601 13.3109V13.3109C28.9518 13.7569 29.5323 13.5817 29.5323 13.5817V13.5817C29.5323 13.5817 29.7475 13.5565 30.0718 13.3576V13.3576C30.0718 13.3576 32.7136 11.7755 32.7152 11.775V11.775C33.5541 11.2666 34.3234 11.1717 34.7166 11.2091V11.2091C35.9482 11.3247 36.3308 12.2134 36.8648 12.8333V12.8333C37.1793 13.198 37.463 13.4051 37.897 13.3946V13.3946C38.1821 13.3884 38.5042 13.2098 38.5517 13.1775V13.1775L41.7152 11.2918C41.7152 11.2918 41.3906 10.7868 40.7258 10.0012V10.0012C40.1309 9.30019 39.4989 9.61734 38.9951 9.8751V9.8751C38.7834 9.98324 38.0164 10.5102 37.2566 10.8779V10.8779C36.7152 11.1397 35.9375 11.061 35.5113 10.517V10.517C35.4858 10.4839 34.7963 9.62164 34.7238 9.51555V9.51555C34.4455 9.15549 33.9025 8.83301 33.2066 8.83301V8.83301C32.7834 8.83301 32.3033 8.95221 31.7917 9.25451" fill="url(#paint0_linear_543_1574)"/>
<defs>
<linearGradient id="paint0_linear_543_1574" x1="18.6572" y1="13.8069" x2="41.7152" y2="13.8069" gradientUnits="userSpaceOnUse">
<stop stop-color="#FFCA06"/>
<stop offset="0.330844" stop-color="#FBAA18"/>
<stop offset="0.694742" stop-color="#FFC907"/>
<stop offset="1" stop-color="#FAA619"/>
</linearGradient>
</defs>
</svg>
