<svg width="23" height="18" viewBox="0 0 23 18" fill="none" xmlns="http://www.w3.org/2000/svg">
<path d="M22.9619 2.15581C22.1438 2.51446 21.272 2.75219 20.3632 2.86761C21.2982 2.30971 22.0118 1.43302 22.3473 0.376305C21.4755 0.895728 20.513 1.26262 19.4873 1.46737C18.6595 0.586548 17.4798 0.0410156 16.1928 0.0410156C13.6958 0.0410156 11.6855 2.06649 11.6855 4.54956C11.6855 4.90683 11.7158 5.25037 11.79 5.57741C8.04041 5.39465 4.72254 3.59865 2.49366 0.862749C2.10454 1.53745 1.87629 2.30971 1.87629 3.14107C1.87629 4.70209 2.68066 6.08584 3.87966 6.88696C3.15504 6.87322 2.44416 6.66298 1.84191 6.33181C1.84191 6.34555 1.84191 6.36342 1.84191 6.38128C1.84191 8.57165 3.40529 10.391 5.45541 10.8101C5.08829 10.9104 4.68816 10.9585 4.27291 10.9585C3.98416 10.9585 3.69266 10.942 3.41904 10.8816C4.00341 12.6666 5.66166 13.9789 7.63341 14.0215C6.09891 15.2211 4.15054 15.9439 2.04129 15.9439C1.67141 15.9439 1.31666 15.9274 0.961914 15.8821C2.95979 17.1696 5.32754 17.9048 7.88091 17.9048C16.1804 17.9048 20.7179 11.0341 20.7179 5.0786C20.7179 4.87935 20.711 4.68697 20.7014 4.49596C21.5965 3.86111 22.3487 3.06824 22.9619 2.15581Z" fill="white"/>
</svg>
