<svg width="183" height="35" viewBox="0 0 183 35" fill="none" xmlns="http://www.w3.org/2000/svg">
<path fill-rule="evenodd" clip-rule="evenodd" d="M176.765 31.4471C176.768 30.6999 177.067 29.9843 177.596 29.4572C178.126 28.93 178.843 28.6344 179.59 28.6353C180.335 28.6366 181.049 28.9334 181.576 29.4605C182.102 29.9875 182.399 30.7019 182.399 31.4471C182.399 32.1942 182.103 32.9107 181.574 33.439C181.046 33.9673 180.33 34.264 179.582 34.264C178.835 34.264 178.119 33.9673 177.591 33.439C177.062 32.9107 176.765 32.1942 176.765 31.4471ZM181.954 31.4471C181.954 30.079 180.958 29.0073 179.59 29.0073C178.215 29.0073 177.211 30.078 177.211 31.4471C177.211 32.8296 178.215 33.8982 179.59 33.8982C180.958 33.8982 181.954 32.8296 181.954 31.4471ZM180.994 33.0224H180.533L179.634 31.5735H178.927V33.0224H178.541V29.879H179.917C180.749 29.879 181.03 30.1909 181.03 30.7112C181.03 31.3289 180.599 31.559 180.043 31.5735L180.994 33.0224ZM179.515 31.2667C179.963 31.2667 180.616 31.3413 180.616 30.7019C180.616 30.2117 180.213 30.1536 179.826 30.1536H178.927V31.2667H179.515ZM4.58368 1.03345H15.8889L13.2533 21.3886H27.533L21.4493 32.9592L0.251465 32.9385L4.58368 1.03345ZM34.4635 32.9385L43.2824 11.5811L47.9255 32.9488L59.5282 33.01L50.1704 1.9258H38.717L23.0101 32.9385H34.4635Z" fill="#D0D0D0"/>
<path fill-rule="evenodd" clip-rule="evenodd" d="M36.3838 21.7327L39.3034 32.4575L46.35 21.7835L36.3838 21.7327Z" fill="black" stroke="#D0D0D0" stroke-width="0.815816" stroke-miterlimit="2.613"/>
<path fill-rule="evenodd" clip-rule="evenodd" d="M36.3838 21.7327L39.3034 32.4575L46.35 21.7835L36.3838 21.7327Z" fill="#D0D0D0"/>
<path fill-rule="evenodd" clip-rule="evenodd" d="M80.8186 1.36287L67.5795 1.33075L61.9082 32.9383H65.9253L68.3091 18.0326L77.5322 17.9901L78.1457 15.1638L68.8491 15.2063L70.6887 3.71036L80.5067 3.74352L80.8186 1.36287ZM84.3881 1.38153L88.1813 1.40019L82.6593 32.9383H78.7168L84.3881 1.38153ZM89.7432 1.33075H106.404L105.72 3.71036H99.472L94.3345 32.9383H90.3941L95.6062 3.71036L89.3577 3.78498L89.7432 1.33075ZM102.086 32.9383L107.663 1.33075H111.085L117.555 26.5447L121.721 1.33075H124.992L119.488 32.9383H116.067L109.67 7.95034L105.58 32.9383H102.086ZM142.777 1.40019L129.538 1.36805L123.866 32.9777H137.18L137.571 30.2623H128.366L130.417 17.9901L139.492 18.0284L140.105 15.2011L130.808 15.1638L132.648 3.74767L142.466 3.7798L142.777 1.40019ZM160.246 2.52055L159.501 6.01638C159.501 6.01638 157.866 3.63677 153.924 3.63677C149.981 3.63677 146.933 6.38845 146.933 9.21476C146.933 12.0411 148.048 13.5283 153.404 16.4293C158.758 19.3281 158.535 22.3037 158.535 23.7173C158.535 25.132 156.75 33.015 147.155 33.015C139.644 33.015 140.238 31.7516 140.238 31.7516L140.984 27.8837C140.984 27.8837 142.769 30.5618 147.155 30.5618C151.544 30.5618 154.519 26.9157 154.519 23.9422C154.519 20.9667 150.278 18.7363 147.453 16.9495C144.627 15.1648 142.768 14.4953 142.768 10.0325C142.991 5.86713 147.377 0.73584 153.849 0.73584C159.429 1.03329 160.246 2.52055 160.246 2.52055ZM179.546 2.52055L178.802 6.01638C178.802 6.01638 177.167 3.63677 173.223 3.63677C169.282 3.63677 166.234 6.38845 166.234 9.21476C166.234 12.0411 167.349 13.5283 172.703 16.4293C178.057 19.3281 177.834 22.3037 177.834 23.7173C177.834 25.132 176.049 33.015 166.456 33.015C158.944 33.015 159.539 31.7516 159.539 31.7516L160.282 27.8837C160.282 27.8837 162.067 30.5618 166.456 30.5618C170.844 30.5618 173.818 26.9157 173.818 23.9422C173.818 20.9667 169.579 18.7363 166.754 16.9495C163.928 15.1648 162.068 14.4953 162.068 10.0325C162.291 5.86713 166.679 0.73584 173.151 0.73584C178.728 1.03329 179.546 2.52055 179.546 2.52055Z" fill="#D0D0D0"/>
</svg>
