<svg width="45" height="32" viewBox="0 0 45 32" fill="none" xmlns="http://www.w3.org/2000/svg">
<rect x="0.906738" width="43.9535" height="31.3953" rx="2.51163" fill="white"/>
<path fill-rule="evenodd" clip-rule="evenodd" d="M8.03484 18.6428L9.5265 20.49H5.83342L8.03484 18.6428ZM7.56581 18.0724L4.6769 20.4959L4.67571 14.5357L7.56581 18.0724ZM14.5166 12.0709C14.5166 12.0709 13.8824 11.7707 13.1457 11.8145C12.3034 11.8641 11.5987 12.1871 11.1936 12.6134C10.9387 12.8812 10.6569 13.2078 10.5153 13.5626C10.3101 14.0758 10.2662 14.754 10.2662 14.754C10.2662 14.754 9.97165 14.504 9.60256 13.7754C9.17341 12.928 9.05602 12.4146 8.99786 11.829C8.9461 11.315 9.02736 10.8069 9.02736 10.8069H14.5166V12.0709ZM14.5168 13.7606V17.5187C14.5168 17.5187 14.1755 17.6497 13.8972 17.6497C13.6188 17.6497 13.1448 17.6085 12.5942 17.3058C12.0477 17.0055 11.7451 16.6423 11.5106 16.3132C11.2728 15.9784 11.0764 15.5143 11.018 15.1799C10.9711 14.9123 10.9205 14.245 11.1938 13.7026C11.3421 13.4083 11.7401 12.9037 12.5063 12.875C13.1309 12.8511 13.4773 13.0153 13.7947 13.1895C14.3988 13.5217 14.5168 13.7606 14.5168 13.7606V13.7606ZM8.53963 17.2545L9.52976 16.4292C9.21421 16.0261 9.13082 15.8743 8.77807 15.3539C8.41691 14.8212 8.11438 14.2352 7.85569 13.5477C7.57567 12.8029 7.50803 12.3848 7.53895 11.8287C7.57768 11.1213 7.73854 10.8066 7.73854 10.8066H4.67432L4.67574 12.4581C4.67574 12.4581 7.02131 15.3976 8.53963 17.2545V17.2545ZM11.3686 20.4876H14.5167V18.1922C14.5167 18.1922 13.7359 18.5503 13.2283 18.5793C12.9261 18.5969 12.6328 18.6085 12.1596 18.4826C11.6336 18.3429 11.3347 18.2066 10.8472 17.8045C10.4556 17.4819 10.0078 17.0056 10.0078 17.0056L9.01189 17.836C9.47397 18.4012 9.81523 18.8126 9.9197 18.9233C10.3689 19.398 10.5592 19.5724 10.8617 19.7416C11.1642 19.9111 12.1745 19.9019 12.1745 19.9019L11.3686 20.4876Z" fill="#E94E0F"/>
<path fill-rule="evenodd" clip-rule="evenodd" d="M38.3257 18.4458C38.3257 19.1109 38.4154 20.2041 37.6706 20.4702V20.5145H40.4994V20.4702C39.7551 20.1895 39.8444 19.1109 39.8444 18.4458V12.8754C39.8444 12.2106 39.7551 11.1172 40.4994 10.8365V10.7922H37.6706V10.8365C38.43 11.1172 38.3257 12.1958 38.3257 12.8754V18.4458ZM27.9527 12.8754L33.0597 19.3029C33.7146 20.145 34.1765 20.6328 35.2335 20.9872V12.6981C35.2335 11.8708 35.2335 11.2796 36.008 10.8365V10.7922H33.3872V10.8365C34.1765 11.2796 34.1613 11.8708 34.1613 12.6981V18.2981L28.7122 11.4717L28.5035 11.1762C28.3995 11.0581 28.34 10.9842 28.2804 10.807V10.7922H26.1063V10.8365C26.8806 11.2796 26.8806 11.8708 26.8806 12.6981V18.5939C26.8806 19.4211 26.8806 20.012 26.0917 20.4702V20.5145H28.7271V20.4702C27.9379 20.012 27.9527 19.4211 27.9527 18.5939V12.8754ZM19.6281 14.7076V11.8117L20.6254 11.708C21.5189 11.6194 22.4716 12.1514 22.4716 13.171C22.4716 14.3826 21.0869 14.7076 20.1194 14.7076H19.6281ZM19.6281 19.3326V15.6829L20.6701 15.6238C21.9804 15.5499 23.3799 16.1707 23.3799 17.6039C23.3799 19.0075 22.1444 19.569 20.9232 19.4508L19.6281 19.3326ZM18.1094 18.4309C18.1094 19.1107 18.1988 20.1894 17.4541 20.4701V20.5144H19.9109C21.0275 20.5144 22.2041 20.5588 23.2461 20.0564C24.2437 19.5835 25.033 18.6082 25.033 17.4704C25.033 16.0226 23.9458 15.136 22.6058 14.855C23.4546 14.4858 24.0946 13.9244 24.0946 12.9344C24.0946 11.6193 22.9485 10.792 20.9832 10.792H17.4541V10.8363C18.2138 11.117 18.1094 12.1957 18.1094 12.8604V18.4309Z" fill="#005B6A"/>
</svg>
