<svg width="117" height="51" viewBox="0 0 117 51" fill="none" xmlns="http://www.w3.org/2000/svg">
<path fill-rule="evenodd" clip-rule="evenodd" d="M0.995605 25.7564L5.32393 1.47461H15.296L16.6862 14.1969L22.4833 1.62977H32.4541L28.0486 25.9894H21.0918C22.3801 19.369 23.282 12.6719 24.9565 6.12994C22.3288 12.827 19.0822 19.369 16.1454 25.9894H11.7391C11.121 19.2398 10.271 12.4908 9.88468 5.74173C9.0341 12.4135 7.7199 19.0846 6.63813 25.7564H0.995605ZM37.2461 9.85309H31.9899L30.2127 18.1537C27.92 25.239 42.5536 26.3504 43.971 19.1625L46.0579 10.0082H41.8062L39.9518 18.6191C39.6686 21.645 34.7994 21.1536 35.3143 18.7743L37.2461 9.85309ZM56.8787 14.1196L61.207 13.3438C58.9786 8.6891 47.7708 8.37817 46.8306 13.8093C46.6501 16.1107 48.0409 17.7914 53.8646 19.0846C55.6937 19.7046 54.7405 20.6362 52.5504 20.8686C51.8549 20.9718 50.2576 20.5323 49.6908 19.3949L44.7437 20.0928C45.7222 24.5541 58.1917 26.3127 60.2798 20.1701C60.9109 17.2221 58.2838 15.6965 54.1736 14.8175C51.7004 14.1969 51.8549 12.8783 54.0964 12.8004C55.2301 12.9303 56.1573 13.3698 56.8787 14.1196ZM71.9512 15.516L76.8977 15.3608C76.3048 11.9023 74.3731 9.87225 70.4831 9.93036C64.8653 9.74924 62.3661 12.4122 61.2843 16.3697C60.6853 21.0436 62.6826 23.9526 68.4728 24.2821C71.5778 24.1399 74.2316 22.8986 75.8932 19.2392L71.333 18.6185C69.4 22.911 65.1236 21.2043 66.8502 16.5242C67.3645 12.8647 71.6421 11.2353 71.9512 15.516ZM78.367 10.2407L75.3523 24.0496H87.1021L87.9509 20.7907H81.3032L83.6998 10.3958L78.367 10.2407ZM101.09 24.2821H88.4918L91.4292 10.4737H103.642L102.869 13.499H95.7576L95.2167 15.6712L101.555 15.8263L100.859 18.697L94.5973 18.5419L94.0576 21.1789H101.787L101.09 24.2821ZM95.8348 30.565L100.163 29.7898C97.9347 25.1351 86.7269 24.8242 85.7873 30.2559C85.6062 32.5573 86.9971 34.2375 92.8201 35.5306C94.6492 36.1513 93.6966 37.0822 91.5065 37.3152C90.8111 37.4179 89.2138 36.9784 88.6463 35.841L83.6998 36.5388C84.6777 41.0001 97.1484 42.7587 99.2359 36.6161C99.8671 33.6675 97.2399 32.1431 93.1292 31.2641C90.6565 30.6435 90.8111 29.3237 93.0519 29.2465C94.1856 29.3757 95.1141 29.8152 95.8348 30.565ZM111.774 30.565L116.102 29.7898C113.874 25.1351 102.666 24.8242 101.725 30.2559C101.544 32.5573 102.935 34.2375 108.759 35.5306C110.588 36.1513 109.635 37.0822 107.446 37.3152C106.749 37.4179 105.152 36.9784 104.585 35.841L99.639 36.5388C100.617 41.0001 113.086 42.7587 115.175 36.6161C115.806 33.6675 113.178 32.1431 109.068 31.2641C106.594 30.6435 106.749 29.3237 108.991 29.2465C110.125 29.3757 111.052 29.8152 111.774 30.565Z" fill="#D0D0D0"/>
<path fill-rule="evenodd" clip-rule="evenodd" d="M83.0041 40.1078H70.4042L73.3417 26.2995H85.6312L84.8585 29.3235H77.67L77.1291 31.4969L83.4677 31.6515L82.7723 34.5215L76.511 34.367L75.9701 37.0047H83.6995L83.0041 40.1078ZM35.9322 25.7561H18.3864L14.2127 50.1924H21.4012L23.0238 40.883H30.9857L31.7584 35.5304H23.8738L24.7244 31.1866H34.927L35.9322 25.7561ZM36.9367 26.0664H41.652L38.7145 39.8748H33.6901L36.9367 26.0664ZM42.9655 26.0664H55.4102L54.7142 29.3235H50.7716L48.6081 39.952H43.4971L45.8257 29.3235H42.1897L42.9655 26.0664ZM53.3233 39.952L56.4147 26.1437H61.2091C62.6 28.8339 64.2227 31.5223 65.3805 34.2112C65.6123 31.5995 66.3089 28.9884 66.7725 26.3767H71.0236L68.0861 40.0293H64.2202C62.443 37.2111 60.6658 34.3924 59.3522 31.3411C59.1711 34.1605 58.2185 37.1326 57.6517 40.0293L53.3233 39.952ZM6.18159 31.4617C4.18309 28.879 6.1445 25.7777 9.73475 26.1678C14.0705 26.3489 14.468 30.9826 10.568 32.5762L11.6782 34.3027C12.2333 33.8199 12.7143 33.0398 13.1216 31.963L16.064 32.6318C15.546 34.061 14.7505 35.3993 13.3435 36.533C13.8801 36.8662 14.565 36.9787 15.3977 36.8662L14.8982 39.3741C13.6767 39.8389 12.3811 39.5601 11.0119 38.5383C8.143 40.3965 4.12684 39.7456 2.79472 36.9231C2.14751 34.5815 2.99871 32.8735 6.18159 31.4617ZM7.68062 33.857L9.40156 36.4199C8.42117 36.996 7.51371 36.9027 6.68106 36.1411C6.36704 35.0093 6.66313 34.2471 7.68062 33.857ZM9.29091 30.5697C10.5495 29.9385 10.7343 28.5452 9.67973 28.3962C8.51389 28.4717 8.10653 29.6968 9.29091 30.5697Z" fill="#D0D0D0"/>
<path fill-rule="evenodd" clip-rule="evenodd" d="M0.452637 25.0885L4.78096 0.807373H14.753L16.1433 13.5296L21.9397 0.961912H31.9106L27.5056 25.3215H20.5495C21.8371 18.7017 22.739 12.004 24.4136 5.46208C21.7858 12.1592 18.5399 18.7011 15.6024 25.3215H11.1962C10.578 18.5725 9.72806 11.8235 9.34171 5.0745C8.49113 11.7456 7.17755 18.4174 6.09516 25.0885H0.452637ZM36.7037 9.18523H31.4476L29.6704 17.4864C27.3776 24.5711 42.0118 25.6838 43.4286 18.4946L45.5155 9.34039H41.2639L39.4094 17.9513C39.1263 20.9765 34.2571 20.4857 34.772 18.1064L36.7037 9.18523ZM56.3363 13.4524L60.6647 12.6766C58.4356 8.02186 47.2284 7.71155 46.2882 13.142C46.1071 15.4441 47.4986 17.1242 53.3216 18.4174C55.1507 19.038 54.1975 19.9689 52.008 20.2014C51.3126 20.3046 49.7153 19.8651 49.1484 18.7277L44.202 19.4256C45.1805 23.8874 57.6499 25.6461 59.738 19.5035C60.3692 16.5549 57.7414 15.0299 53.6313 14.1509C51.1581 13.5302 51.3126 12.2117 53.554 12.1338C54.6871 12.2624 55.615 12.7019 56.3363 13.4524ZM71.4088 14.8482L76.3553 14.693C75.7625 11.2344 73.8307 9.20501 69.9395 9.2625C64.3229 9.08076 61.8237 11.7444 60.7419 15.7012C60.1429 20.3751 62.1402 23.2847 67.9305 23.6136C71.0342 23.472 73.688 22.2308 75.3508 18.5713L70.7907 17.9507C68.8577 22.2431 64.5813 20.5364 66.3066 15.8557C66.8221 12.1969 71.0985 10.568 71.4088 14.8482ZM77.8234 9.57343L74.8099 23.3818H86.5586L87.4085 20.1235H80.7609L83.1575 9.72859L77.8234 9.57343ZM100.548 23.6142H87.9494L90.8869 9.80586H103.099L102.326 12.8317H95.2152L94.6743 15.0033L101.013 15.1585L100.316 18.0286L94.0549 17.874L93.514 20.5117H101.245L100.548 23.6142Z" fill="#D0D0D0"/>
<path fill-rule="evenodd" clip-rule="evenodd" d="M95.2927 29.8983L99.621 29.1219C97.3926 24.4672 86.1848 24.1569 85.244 29.588C85.0629 31.8894 86.455 33.5695 92.278 34.8627C94.1071 35.4833 93.1545 36.4143 90.9644 36.6473C90.269 36.7511 88.6717 36.3104 88.1042 35.173L83.1577 35.8709C84.1356 40.3334 96.6051 42.0908 98.6938 35.9494C99.3249 33.0008 96.6972 31.4752 92.5871 30.5962C90.1144 29.9755 90.269 28.657 92.5098 28.5785C93.6435 28.7089 94.5707 29.1485 95.2927 29.8983ZM111.231 29.8983L115.56 29.1219C113.332 24.4672 102.124 24.1569 101.183 29.588C101.002 31.8894 102.393 33.5695 108.217 34.8627C110.046 35.4833 109.092 36.4143 106.902 36.6473C106.207 36.7511 104.61 36.3104 104.043 35.173L99.0956 35.8709C100.074 40.3334 112.544 42.0908 114.632 35.9494C115.264 33.0008 112.636 31.4752 108.526 30.5962C106.052 29.9755 106.207 28.657 108.449 28.5785C109.583 28.7089 110.51 29.1485 111.231 29.8983Z" fill="#D0D0D0"/>
<path fill-rule="evenodd" clip-rule="evenodd" d="M82.4616 39.4403H69.8618L72.7993 25.632H85.0888L84.3161 28.6572H77.1276L76.5867 30.8294L82.9253 30.984L82.2298 33.8553L75.9673 33.6995L75.4277 36.3372H83.1571L82.4616 39.4403ZM35.3897 25.0886H17.8434L13.6696 49.5249H20.8588L22.4814 40.2155H30.4433L31.2153 34.8629H23.3314L24.182 30.5191H34.3846L35.3897 25.0886ZM36.3942 25.3989H41.1095L38.1721 39.2073H33.1471L36.3942 25.3989ZM42.4231 25.3989H54.8672L54.1718 28.6572H50.2286L48.0656 39.2846H42.9547L45.2827 28.6572H41.6467L42.4231 25.3989ZM52.7803 39.2846L55.8723 25.4762H60.6667C62.0576 28.1664 63.679 30.8548 64.838 33.545C65.0698 30.932 65.7653 28.321 66.2289 25.7093H70.4812L67.5437 39.3631H63.6778C61.9006 36.5437 60.1234 33.7249 58.8086 30.6737C58.6287 33.4931 57.6755 36.4664 57.1086 39.3631L52.7803 39.2846ZM5.63917 30.7942C3.64006 28.2115 5.60208 25.1103 9.19233 25.5003C13.5275 25.6814 13.9255 30.3164 10.025 31.9087L11.1352 33.6365C11.6903 33.1537 12.1718 32.3723 12.5786 31.2955L15.5216 31.9644C15.0036 33.3948 14.2074 34.7318 12.8011 35.8655C13.3377 36.2 14.0226 36.3112 14.8552 36.2L14.3552 38.7078C13.1337 39.1714 11.8387 38.8926 10.4688 37.8708C7.59996 39.729 3.58443 39.0781 2.25168 36.2556C1.60447 33.914 2.45629 32.2061 5.63917 30.7942ZM7.1382 33.1895L8.85914 35.7524C7.87813 36.3285 6.9713 36.2352 6.13864 35.4749C5.82462 34.3418 6.1201 33.5796 7.1382 33.1895ZM8.74788 29.9022C10.0064 29.2711 10.1913 27.8777 9.13669 27.7288C7.97147 27.8036 7.56349 29.0294 8.74788 29.9022Z" fill="#D0D0D0"/>
</svg>
