<svg width="183" height="29" viewBox="0 0 183 29" fill="none" xmlns="http://www.w3.org/2000/svg">
<path fill-rule="evenodd" clip-rule="evenodd" d="M0.399414 16.7793L2.49712 13.1083C5.36177 13.6327 8.20673 13.9354 11.1118 13.9354C12.6851 13.9354 15.4295 13.8348 15.4699 13.0067C15.5104 11.7361 12.9276 11.9175 11.1118 11.5744C7.82326 10.9484 2.19449 9.39483 2.6588 6.18816C3.22365 2.09328 13.6738 0.499268 17.4671 0.499268C21.0977 0.499268 24.8702 1.08381 28.3205 1.76992L25.859 5.03774C23.4586 4.57342 20.9764 4.27183 18.516 4.29152C16.781 4.31225 13.2696 4.59415 13.4717 5.82437C13.593 6.57059 16.8608 6.89396 18.6165 7.09502C23.0741 7.57903 26.8467 8.97197 26.6052 12.0978C26.1813 17.1213 17.9511 17.9276 12.9877 18.0489C8.79231 18.1722 4.53575 17.7286 0.399414 16.7793ZM135.987 22.9532L139.032 28.3395H141.152L143.431 20.5933H141.314L139.738 25.9391L136.672 20.5933H134.554L132.275 28.3395H134.392L135.987 22.9532Z" fill="#D0D0D0"/>
<path fill-rule="evenodd" clip-rule="evenodd" d="M48.0706 13.3106L49.2003 16.8406C46.517 17.6075 43.3498 17.8915 40.3846 17.8107C33.7671 17.5879 26.1815 15.0051 27.0894 9.78054C28.2596 3.12364 41.9579 1.00521 45.3065 0.924368C48.2116 0.843528 50.9156 1.10574 53.2144 1.61048L50.6928 5.22135C49.0583 4.93945 47.3244 4.85756 45.6288 4.89798C42.1993 4.9581 36.5105 6.49199 36.5913 9.94118C36.6918 13.9563 41.5537 13.8143 43.5912 13.8744C45.4278 13.9563 46.6373 13.694 48.0706 13.3106ZM80.1467 1.20628L75.546 17.5671H67.3158L68.9503 11.9798H59.4681L57.7736 17.5671H49.5227L54.4042 1.20628H62.5152L60.8403 6.53242H70.4023L72.0564 1.20628H80.1467ZM118.537 1.20628L107.845 17.5671H99.8551L98.201 8.16684L91.8063 17.5671H84.0197L80.6908 1.20628H88.6598L90.4341 9.74012L95.8815 1.20628H104.819L106.614 9.74012L112.203 1.20628H118.537ZM114.442 17.5671H122.429L127.152 1.20628H119.163L114.442 17.5671ZM142.302 17.5671H150.291L155.03 1.20628H147.042L144.381 10.4055L137.056 1.20628H129.067L124.347 17.5671H132.336L135.079 8.06527L142.302 17.5671ZM169.819 17.5671H177.827L182.548 1.20628H174.56L171.896 10.4055L164.574 1.20628H156.584L151.864 17.5671H159.852L162.597 8.06527L169.819 17.5671ZM180.813 16.6603C180.813 16.055 180.329 15.5492 179.723 15.5492C179.097 15.5492 178.614 16.055 178.614 16.6603C178.614 17.2655 179.098 17.7692 179.723 17.7692C180.329 17.7692 180.813 17.2655 180.813 16.6603Z" fill="#D0D0D0"/>
<path fill-rule="evenodd" clip-rule="evenodd" d="M180.691 16.66C180.691 16.9168 180.589 17.163 180.408 17.3445C180.226 17.526 179.98 17.628 179.723 17.628C179.179 17.6488 178.735 17.2052 178.735 16.66C178.735 16.1149 179.179 15.6899 179.723 15.6899C180.247 15.6899 180.691 16.1159 180.691 16.66Z" fill="#D0D0D0"/>
<path fill-rule="evenodd" clip-rule="evenodd" d="M179.298 17.2449H179.46V16.7215H179.865C180.105 16.7215 180.045 16.9422 180.065 17.0842L180.086 17.2459H180.288C180.207 17.1247 180.226 17.1039 180.226 16.9422C180.206 16.7422 180.206 16.7215 180.065 16.6406C180.186 16.5391 180.247 16.479 180.226 16.337C180.226 16.0561 180.044 16.0146 179.844 16.0146H179.298V17.2449Z" fill="#D0D0D0"/>
<path fill-rule="evenodd" clip-rule="evenodd" d="M179.845 16.1545C179.945 16.1545 180.107 16.1753 180.066 16.3971C180.066 16.5391 179.967 16.5795 179.845 16.5795H179.461V16.1545H179.845Z" fill="#D0D0D0"/>
<path fill-rule="evenodd" clip-rule="evenodd" d="M117.468 28.3395H119.585L121.864 20.5933H119.747L117.468 28.3395ZM124.931 28.3395H127.05L128.925 21.9852H132.154L132.536 20.5923H123.862L123.48 21.9852H126.808L124.931 28.3395ZM117.871 20.5933L117.488 21.9862H112.122L111.638 23.66H116.055L115.672 25.0323H111.234L110.246 28.3395H108.128L110.408 20.5923L117.871 20.5933ZM146.477 26.9672H152.428L152.045 28.3395H143.954L146.233 20.5923H153.98L153.598 21.9852H147.949L147.445 23.659H152.771L152.389 25.0312H147.043L146.477 26.9672ZM154.687 25.8179H156.624C156.966 26.9476 158.177 27.0077 159.226 27.0284C160.074 27.0688 160.801 26.6656 160.78 26.0604C160.76 25.1722 159.468 25.0323 158.641 24.8706C156.967 24.5669 155.354 24.1845 155.515 22.5708C155.675 20.9757 158.278 20.2109 159.892 20.2513C161.769 20.2896 163.726 20.9353 164.108 23.0144H161.687C161.545 22.0059 160.497 21.7023 159.791 21.6618C159.066 21.6214 158.015 21.8442 157.934 22.5708C157.896 23.1553 159.246 23.4984 160.054 23.6393C162.052 23.9409 163.242 24.6674 163.121 25.9184C162.959 27.8358 160.436 28.5395 158.782 28.4991C157.089 28.441 154.647 27.9549 154.687 25.8179ZM164.775 25.8179H166.712C167.054 26.9476 168.264 27.0077 169.292 27.0284C170.161 27.0688 170.888 26.6656 170.868 26.0604C170.847 25.1722 169.536 25.0323 168.729 24.8706C167.055 24.5669 165.441 24.1845 165.603 22.5708C165.762 20.9757 168.366 20.2109 169.98 20.2513C171.836 20.2896 173.794 20.9353 174.196 23.0144H171.775C171.613 22.0059 170.585 21.7023 169.857 21.6618C169.153 21.6214 168.082 21.8442 168.023 22.5708C167.962 23.1553 169.312 23.4984 170.14 23.6393C172.118 23.9409 173.309 24.6674 173.207 25.9184C173.025 27.8358 170.503 28.5395 168.849 28.4991C167.175 28.441 164.733 27.9549 164.775 25.8179Z" fill="#D0D0D0"/>
</svg>
