<svg width="23" height="23" viewBox="0 0 23 23" fill="none" xmlns="http://www.w3.org/2000/svg">
<path fill-rule="evenodd" clip-rule="evenodd" d="M7.83691 0.0429688H16.0869C19.8833 0.0429688 22.9619 3.11954 22.9619 6.91339V15.1579C22.9619 18.9517 19.8833 22.0283 16.0869 22.0283H7.83691C4.04054 22.0283 0.961914 18.9517 0.961914 15.1579V6.91339C0.961914 3.11954 4.04054 0.0429688 7.83691 0.0429688ZM16.0869 19.9678C18.7407 19.9678 20.8994 17.8104 20.8994 15.1583V6.91348C20.8994 4.2614 18.7407 2.104 16.0869 2.104H7.83691C5.18316 2.104 3.02441 4.2614 3.02441 6.91348V15.1583C3.02441 17.8104 5.18316 19.9678 7.83691 19.9678H16.0869Z" fill="white"/>
<path fill-rule="evenodd" clip-rule="evenodd" d="M6.46191 11.0354C6.46191 8.00005 8.92454 5.53906 11.9619 5.53906C14.9993 5.53906 17.4619 8.00005 17.4619 11.0354C17.4619 14.0708 14.9993 16.5317 11.9619 16.5317C8.92454 16.5317 6.46191 14.0708 6.46191 11.0354ZM8.52441 11.0356C8.52441 12.9293 10.0672 14.4712 11.9619 14.4712C13.8567 14.4712 15.3994 12.9293 15.3994 11.0356C15.3994 9.1406 13.8567 7.6001 11.9619 7.6001C10.0672 7.6001 8.52441 9.1406 8.52441 11.0356Z" fill="white"/>
<circle cx="17.8745" cy="5.12741" r="0.732875" fill="white"/>
</svg>
