<svg width="22" height="22" viewBox="0 0 22 22" fill="none" xmlns="http://www.w3.org/2000/svg">
<path fill-rule="evenodd" clip-rule="evenodd" d="M3.2998 5.50002C3.2998 5.20829 3.4157 4.9285 3.62199 4.72221C3.82828 4.51592 4.10807 4.40002 4.3998 4.40002H17.5998C17.8915 4.40002 18.1713 4.51592 18.3776 4.72221C18.5839 4.9285 18.6998 5.20829 18.6998 5.50002C18.6998 5.79176 18.5839 6.07155 18.3776 6.27784C18.1713 6.48413 17.8915 6.60002 17.5998 6.60002H4.3998C4.10807 6.60002 3.82828 6.48413 3.62199 6.27784C3.4157 6.07155 3.2998 5.79176 3.2998 5.50002Z" fill="white"/>
<path fill-rule="evenodd" clip-rule="evenodd" d="M3.2998 11C3.2998 10.7083 3.4157 10.4285 3.62199 10.2222C3.82828 10.0159 4.10807 9.90002 4.3998 9.90002H17.5998C17.8915 9.90002 18.1713 10.0159 18.3776 10.2222C18.5839 10.4285 18.6998 10.7083 18.6998 11C18.6998 11.2918 18.5839 11.5716 18.3776 11.7778C18.1713 11.9841 17.8915 12.1 17.5998 12.1H4.3998C4.10807 12.1 3.82828 11.9841 3.62199 11.7778C3.4157 11.5716 3.2998 11.2918 3.2998 11Z" fill="white"/>
<path fill-rule="evenodd" clip-rule="evenodd" d="M3.2998 16.5C3.2998 16.2083 3.4157 15.9285 3.62199 15.7222C3.82828 15.5159 4.10807 15.4 4.3998 15.4H10.9998C11.2915 15.4 11.5713 15.5159 11.7776 15.7222C11.9839 15.9285 12.0998 16.2083 12.0998 16.5C12.0998 16.7918 11.9839 17.0716 11.7776 17.2778C11.5713 17.4841 11.2915 17.6 10.9998 17.6H4.3998C4.10807 17.6 3.82828 17.4841 3.62199 17.2778C3.4157 17.0716 3.2998 16.7918 3.2998 16.5Z" fill="white"/>
</svg>
