<svg width="45" height="32" viewBox="0 0 45 32" fill="none" xmlns="http://www.w3.org/2000/svg">
<rect x="0.860352" width="43.9535" height="31.3953" rx="2.51163" fill="white"/>
<path fill-rule="evenodd" clip-rule="evenodd" d="M8.94991 16.151C8.94512 16.151 8.94991 18.3998 8.94991 18.3998C8.94991 18.6829 8.69788 18.9304 8.36809 18.9304H8.05152V19.0455H10.7282V18.9304H10.4119C10.086 18.9304 9.8299 18.6789 9.8299 18.3998V16.1157V13.3894C9.8299 13.1152 10.0818 12.8594 10.4119 12.8594H10.7282V12.7441H8.05152V12.8594H8.36809C8.70199 12.8594 8.94991 13.1152 8.94991 13.3894V15.8319H5.77799V13.3894C5.77799 13.1152 6.03481 12.8594 6.36096 12.8594H6.67705V12.7441H4V12.8594H4.31609C4.64559 12.8594 4.89829 13.1152 4.89829 13.3894V16.1157V18.3998C4.89829 18.6789 4.64559 18.9304 4.31609 18.9304H4V19.0455H6.67705V18.9304H6.36096C6.03481 18.9304 5.77799 18.6789 5.77799 18.3998C5.77799 18.3998 5.78249 16.151 5.77799 16.151H8.94991Z" fill="#231F20"/>
<path fill-rule="evenodd" clip-rule="evenodd" d="M15.3157 17.3967C15.3388 17.7669 15.1003 18.3295 14.7704 18.6159C14.4527 18.8923 14.0006 19.1334 13.3954 19.1334C12.7081 19.1334 12.1165 18.7795 11.9011 18.7003C11.7706 18.6517 11.5994 18.6572 11.4974 18.7177C11.3789 18.7888 11.3051 18.9028 11.2772 19.1159H11.1768V16.9321H11.2772C11.3692 17.6037 11.6942 17.9989 11.8969 18.2225C12.2267 18.5898 12.8493 18.7975 13.4502 18.7046C13.9272 18.6307 14.4491 18.1313 14.3926 17.514C14.372 17.2907 14.3208 16.9654 13.8397 16.6627C13.5383 16.4722 13.1087 16.202 12.7028 15.9421C12.1906 15.6151 11.7249 15.2601 11.5943 15.1157C11.4225 14.9282 11.2091 14.6568 11.2091 14.2229C11.2091 13.852 11.3557 13.4278 11.6673 13.1452C11.9789 12.8625 12.401 12.6504 13.0056 12.6504C13.6107 12.6504 14.0694 12.9597 14.2247 13.0308C14.3801 13.1006 14.5531 13.0847 14.6514 13.0308C14.7472 12.9776 14.8114 12.8984 14.8388 12.6855H14.9399V14.7538H14.8388C14.7472 14.0817 14.4446 13.5787 14.2342 13.3931C14.0238 13.2071 13.6107 12.9508 12.9965 13.0659C12.4068 13.176 12.1202 13.4325 12.066 13.8874C12.0249 14.2341 12.2197 14.4473 12.3316 14.5765C12.5615 14.8422 14.0159 15.6369 14.6742 16.1858C15.0137 16.4681 15.2791 16.8042 15.3157 17.3967Z" fill="#231F20"/>
<path fill-rule="evenodd" clip-rule="evenodd" d="M19.5544 15.8283C20.7199 16.2136 21.0521 17.0066 20.8361 17.8241C20.5819 18.7839 19.4586 18.9797 19.094 19.0257C18.9296 19.0462 18.5104 19.0448 18.0954 19.0448C17.3549 19.0451 16.4177 19.0426 15.666 19.0426V18.9283H16.051C16.2959 18.9283 16.5759 18.7292 16.5759 18.4292V13.3981C16.5759 13.097 16.2959 12.8943 16.0533 12.8943H15.6686V12.7793H17.9918C18.5509 12.7793 18.855 12.8307 19.05 12.868C19.3807 12.9291 20.3433 13.203 20.5729 14.0695C20.7495 14.7401 20.4022 15.585 19.5544 15.8283ZM17.4465 15.6512C17.7674 15.7305 18.712 15.7524 19.0783 15.5278C19.6525 15.1765 19.852 14.6126 19.7456 14.1133C19.6825 13.8136 19.5178 13.5377 19.2337 13.3449C18.6747 12.9647 17.8684 13.0269 17.4465 13.1503V15.6512ZM17.4465 18.6893C17.8991 18.8248 18.7611 18.9283 19.3624 18.5132C20.0826 18.0163 20.2343 16.8006 19.2173 16.1678C18.8077 15.9123 17.7856 15.9306 17.4465 16.0066V18.6893Z" fill="#231F20"/>
<path fill-rule="evenodd" clip-rule="evenodd" d="M26.9628 12.8543L27.0568 14.9887L26.9241 14.9931C26.8598 14.4535 26.649 14.0731 26.3835 13.8259C26.3069 13.755 26.1618 13.6106 25.9517 13.4836C25.603 13.2713 25.0838 13.0837 24.4673 13.1898C23.5411 13.3486 23.0649 13.9385 22.8266 14.5064C22.5332 15.2048 22.3477 16.399 22.8448 17.4058C23.2489 18.2233 24.0247 18.5639 24.6231 18.6517C25.1335 18.7264 26.264 18.704 27.1264 17.5828L27.2632 17.6706C26.5938 18.5809 25.704 19.1651 24.6875 19.1558C23.3857 19.1447 22.568 18.4532 22.194 18.0421C21.7997 17.6085 21.4974 16.787 21.4937 16.0712C21.4904 15.4349 21.6357 14.7263 21.8732 14.3124C22.2805 13.6009 23.1337 12.8938 24.256 12.788C25.0973 12.7089 25.65 12.8677 26.122 13.1278C26.3582 13.2582 26.4908 13.273 26.6193 13.2212C26.7477 13.1674 26.8507 13.0621 26.8507 12.8543H26.9628Z" fill="#231F20"/>
<path fill-rule="evenodd" clip-rule="evenodd" d="M32.479 19.044H39.0088V12.75H32.479V19.044Z" fill="white"/>
<path fill-rule="evenodd" clip-rule="evenodd" d="M29.2124 15.8972L32.4777 19.0452V12.749L29.2124 15.8972Z" fill="#EE3624"/>
<path fill-rule="evenodd" clip-rule="evenodd" d="M32.4785 19.0455H39.0085L35.7434 15.8975L32.4785 19.0455Z" fill="#EE3624"/>
<path fill-rule="evenodd" clip-rule="evenodd" d="M35.7437 15.8972L39.0092 12.749H32.4785L35.7437 15.8972Z" fill="#EE3624"/>
<path fill-rule="evenodd" clip-rule="evenodd" d="M39.0098 12.749V19.0452L42.2747 15.8972L39.0098 12.749Z" fill="#EE3624"/>
</svg>
