<svg width="44" height="32" viewBox="0 0 44 32" fill="none" xmlns="http://www.w3.org/2000/svg">
<rect width="43.9535" height="31.3953" rx="2.51163" fill="#0060AF"/>
<path fill-rule="evenodd" clip-rule="evenodd" d="M9.04064 18.7063C9.04064 18.285 9.04549 17.1587 9.03447 17.02C9.04408 15.3441 7.75147 14.1619 6.93485 14.2541C6.36979 14.3003 5.89612 14.5175 5.64194 15.1423C5.40617 15.7247 5.61697 16.4992 6.40052 16.681C7.23827 16.8762 7.72761 17.0386 8.08167 17.2677C8.51551 17.5482 8.86967 18.0841 8.87908 18.707" fill="white"/>
<path fill-rule="evenodd" clip-rule="evenodd" d="M8.68989 18.7064C8.69262 18.1663 8.37283 17.6887 7.95486 17.4321C7.58412 17.2052 7.08638 17.0563 6.28342 16.8642C6.03521 16.8044 5.77557 16.6714 5.6952 16.502C5.48257 16.7039 5.44395 17.158 5.48136 17.4234C5.52484 17.7304 5.90549 18.2365 6.47865 18.2563C6.82867 18.2695 7.2712 18.1853 7.48342 18.1428C7.84951 18.0682 8.42874 18.2844 8.52094 18.7057" fill="white"/>
<path fill-rule="evenodd" clip-rule="evenodd" d="M9.33667 11.6416C8.36476 11.6416 7.5254 12.2458 7.52833 13.2912C7.53136 14.1703 8.28135 14.6409 8.54907 14.9771C8.95349 15.4836 9.17237 16.0832 9.19502 17.0006C9.21282 17.7308 9.21191 18.4518 9.21585 18.7073H9.43029C9.42665 18.44 9.41694 17.6746 9.42796 16.978C9.44252 16.0603 9.6693 15.4836 10.0739 14.9771C10.344 14.6409 11.0932 14.1703 11.0949 13.2912C11.0986 12.2458 10.2595 11.6416 9.28864 11.6416" fill="white"/>
<path fill-rule="evenodd" clip-rule="evenodd" d="M9.58321 18.7063C9.58321 18.285 9.57816 17.1587 9.58897 17.02C9.57947 15.3441 10.8713 14.1619 11.6886 14.2541C12.2537 14.3003 12.7267 14.5175 12.9817 15.1423C13.2172 15.7247 13.0053 16.4992 12.2227 16.681C11.3844 16.8762 10.8957 17.0386 10.5408 17.2677C10.1074 17.5482 9.77804 18.0841 9.76793 18.707" fill="white"/>
<path fill-rule="evenodd" clip-rule="evenodd" d="M9.93264 18.7064C9.92961 18.1663 10.2493 17.6887 10.666 17.4321C11.0384 17.2052 11.5366 17.0563 12.3389 16.8642C12.5876 16.8044 12.847 16.6714 12.9259 16.502C13.1395 16.7039 13.1782 17.158 13.1407 17.4234C13.0964 17.7304 12.7166 18.2365 12.1445 18.2563C11.7947 18.2695 11.3497 18.1853 11.1384 18.1428C10.7737 18.0682 10.1929 18.2844 10.1003 18.7057" fill="white"/>
<path fill-rule="evenodd" clip-rule="evenodd" d="M10.2327 20.451L10.1084 19.5957L10.4086 19.5528C10.4816 19.5434 10.5705 19.5554 10.6061 19.5985C10.6455 19.6436 10.6575 19.6809 10.6651 19.74C10.6765 19.8132 10.6541 19.8976 10.5667 19.9397V19.9423C10.6642 19.9423 10.7231 20.0083 10.7403 20.1199C10.7427 20.1435 10.7502 20.2003 10.7427 20.2478C10.7229 20.3607 10.6515 20.3971 10.5308 20.413L10.2327 20.451ZM10.4258 20.2978C10.4614 20.2929 10.4975 20.2911 10.5257 20.2742C10.569 20.2476 10.565 20.1908 10.559 20.1485C10.544 20.0557 10.5183 20.0204 10.4139 20.0349L10.3482 20.0445L10.3898 20.3025L10.4258 20.2978ZM10.3628 19.9029C10.4025 19.8969 10.4563 19.8924 10.4788 19.8568C10.4906 19.8331 10.5055 19.8142 10.4956 19.7614C10.4834 19.6989 10.4615 19.66 10.377 19.6751L10.2985 19.687L10.3295 19.9062L10.3628 19.9029Z" fill="white"/>
<path fill-rule="evenodd" clip-rule="evenodd" d="M11.5329 19.9361C11.5353 19.952 11.538 19.9697 11.539 19.9857C11.5633 20.1416 11.5329 20.2708 11.3469 20.3064C11.0718 20.3562 11.0191 20.1952 10.9708 19.9697L10.945 19.8477C10.9071 19.632 10.8908 19.4686 11.159 19.4182C11.3101 19.3923 11.41 19.449 11.4516 19.5908C11.458 19.612 11.4661 19.6328 11.4691 19.6542L11.3047 19.6862C11.2856 19.6328 11.2605 19.5376 11.1865 19.5456C11.0536 19.5608 11.0975 19.7165 11.1111 19.7817L11.1606 20.0159C11.1754 20.0867 11.205 20.1998 11.3199 20.178C11.4132 20.1604 11.3725 20.0233 11.3642 19.9671" fill="white"/>
<path fill-rule="evenodd" clip-rule="evenodd" d="M11.7971 20.1949L11.7402 19.3097L11.9611 19.2461L12.4245 20.016L12.2505 20.0651L12.1407 19.8694L11.9475 19.9241L11.9725 20.1466L11.7971 20.1949ZM11.9313 19.7811L12.0709 19.743L11.8855 19.3848L11.9313 19.7811Z" fill="white"/>
<path fill-rule="evenodd" clip-rule="evenodd" d="M6.33835 19.5254C6.4075 19.3167 6.46938 19.163 6.73336 19.2312C6.8746 19.2685 6.96216 19.3271 6.95801 19.4818C6.9573 19.5162 6.94527 19.5514 6.93739 19.5853L6.77309 19.5426C6.79463 19.4571 6.80828 19.3894 6.69666 19.357C6.56765 19.3236 6.53621 19.4711 6.51841 19.5348L6.45158 19.7668C6.43035 19.8357 6.40487 19.9496 6.51841 19.979C6.61224 20.0028 6.66906 19.916 6.70303 19.7893L6.58817 19.7605L6.62791 19.6263L6.89816 19.7082L6.76986 20.1554L6.6455 20.1236L6.6735 20.0291H6.66997C6.61264 20.1065 6.54288 20.1146 6.48171 20.1034C6.21146 20.0346 6.23967 19.8681 6.30417 19.6456" fill="white"/>
<path fill-rule="evenodd" clip-rule="evenodd" d="M7.34369 19.9029L7.2623 20.2668L7.0791 20.2295L7.27433 19.3799L7.58664 19.4463C7.76944 19.4836 7.82464 19.5602 7.79876 19.7182C7.784 19.8089 7.73658 19.9065 7.62082 19.8985L7.6196 19.8971C7.71747 19.9293 7.72576 19.9759 7.70867 20.0563C7.70129 20.0906 7.65044 20.2982 7.68552 20.3317L7.68673 20.3573L7.49717 20.3106C7.48928 20.2531 7.51617 20.1496 7.52679 20.0922C7.5374 20.0415 7.55449 19.97 7.4999 19.9432C7.45723 19.9217 7.44125 19.9228 7.39293 19.9124L7.34369 19.9029ZM7.37466 19.7714L7.49801 19.8027C7.57292 19.813 7.61458 19.7764 7.62934 19.691C7.64269 19.6128 7.6254 19.5823 7.55816 19.5671L7.42592 19.5418L7.37466 19.7714Z" fill="white"/>
<path fill-rule="evenodd" clip-rule="evenodd" d="M8.51865 19.57L8.69983 19.5898L8.62178 20.1872C8.58386 20.3766 8.50622 20.4593 8.2852 20.4335C8.06035 20.4066 8.00697 20.3102 8.02051 20.1193L8.09917 19.5225L8.28177 19.5421L8.20341 20.1256C8.19502 20.1889 8.17955 20.2828 8.29905 20.2943C8.40511 20.3019 8.42918 20.2356 8.44121 20.1532" fill="white"/>
<path fill-rule="evenodd" clip-rule="evenodd" d="M8.90039 20.4664L8.95499 19.6123L9.30299 19.6265C9.46758 19.6342 9.51055 19.7608 9.5055 19.8816C9.50064 19.9551 9.47638 20.0372 9.40844 20.0817C9.35273 20.1195 9.28105 20.1285 9.21472 20.1254L9.10128 20.1195L9.07864 20.4775L8.90039 20.4664ZM9.10642 19.9893L9.19863 19.9942C9.27355 19.9968 9.32319 19.9688 9.32966 19.8652C9.3334 19.7657 9.29336 19.7487 9.1963 19.7447L9.12331 19.7423L9.10642 19.9893Z" fill="white"/>
<path fill-rule="evenodd" clip-rule="evenodd" d="M33.4507 12.4674L32.0672 14.8347C31.545 14.4349 30.9074 14.1407 30.0938 14.1407C28.1685 14.1407 27.3864 15.4935 27.3864 16.4465C27.3864 17.154 27.8777 18.1976 29.5908 18.1976C30.31 18.1976 31.3322 17.7261 31.6264 17.5115L30.2581 20.2579C29.6059 20.3805 29.3916 20.4566 28.8395 20.4727C25.7733 20.5589 24.5343 18.7833 24.5352 16.969C24.5373 14.5704 26.7994 11.6534 30.5496 11.6534C30.7793 11.6534 31.0604 11.7284 31.3007 11.8114L31.5437 11.5186" fill="white"/>
<path fill-rule="evenodd" clip-rule="evenodd" d="M39.1601 11.5928L39.5519 20.1963H36.6363L36.6346 18.7208H34.6464L33.9922 20.1963H30.8301L34.136 14.0527L33.3905 14.0481L34.8068 11.5928H39.1601ZM36.6155 14.2246L35.4916 16.7271H36.6495L36.6155 14.2246Z" fill="white"/>
<path fill-rule="evenodd" clip-rule="evenodd" d="M22.6946 11.5932C24.1385 11.6009 24.9544 12.3397 24.9544 13.4068C24.9544 14.3908 24.0939 15.2616 23.1493 15.7119C24.1218 16.049 24.2059 16.8763 24.2059 17.4615C24.2059 18.8756 22.7009 20.1967 20.7444 20.1967H16.4775L18.1419 14.1387L17.4582 14.135L18.8558 11.5932C18.8558 11.5932 21.5205 11.5856 22.6946 11.5932V11.5932ZM21.2778 15.0814C21.5765 15.0814 22.1038 15.0101 22.2357 14.4653C22.3801 13.8737 21.8852 13.8578 21.6478 13.8578L20.7996 13.8544L20.5037 15.0814H21.2778ZM20.0788 16.6021L19.6882 18.016H20.6871C21.08 18.016 21.6155 17.8321 21.7468 17.372C21.8764 16.9106 21.502 16.6021 21.1105 16.6021H20.0788Z" fill="white"/>
<path fill-rule="evenodd" clip-rule="evenodd" d="M9.37479 21.2534C7.89736 21.2534 6.37919 20.9104 4.86294 20.232L4.82573 20.2148L4.80793 20.179C4.12751 18.8251 3.76758 17.3443 3.76758 15.8954C3.76758 14.4487 4.11275 13.0312 4.79358 11.679L4.81238 11.6431L4.8503 11.6252C6.25291 10.9988 7.76168 10.6816 9.33637 10.6816C10.8031 10.6816 12.3697 11.0348 13.8658 11.7048L13.9041 11.7209L13.9219 11.7575C14.6153 13.1364 14.981 14.6169 14.981 16.0418C14.981 17.461 14.6299 18.8799 13.9356 20.2579L13.9174 20.294L13.8788 20.3108C12.4975 20.9272 10.94 21.2534 9.37479 21.2534M5.00335 20.0462C6.47623 20.6994 7.94537 21.0292 9.37487 21.0292C10.8906 21.0292 12.398 20.7169 13.7399 20.1248C14.4065 18.7895 14.7444 17.4151 14.7444 16.0417C14.7444 14.6625 14.3917 13.228 13.7247 11.8896C12.2727 11.2462 10.7564 10.905 9.33646 10.905C7.81201 10.905 6.35076 11.2098 4.99061 11.8112C4.33769 13.1216 4.00536 14.4949 4.00536 15.8953C4.00536 17.2981 4.35063 18.7332 5.00335 20.0462Z" fill="white"/>
</svg>
