<svg width="45" height="32" viewBox="0 0 45 32" fill="none" xmlns="http://www.w3.org/2000/svg">
<rect x="0.767578" width="43.9535" height="31.3953" rx="2.51163" fill="#262626"/>
<g opacity="0.01">
<rect x="10.1865" y="7.53418" width="25.0002" height="16.3068" fill="white"/>
</g>
<rect x="19.3901" y="10.375" width="6.59493" height="10.6229" fill="#FF5F00"/>
<path fill-rule="evenodd" clip-rule="evenodd" d="M20.0693 15.6882C20.0676 13.6156 21.0323 11.6573 22.6855 10.3777C19.877 8.20093 15.8439 8.51799 13.4206 11.106C10.9972 13.6941 10.9972 17.6842 13.4206 20.2722C15.8439 22.8602 19.877 23.1773 22.6855 21.0006C21.0318 19.7205 20.067 17.7614 20.0693 15.6882Z" fill="#EB001B"/>
<path fill-rule="evenodd" clip-rule="evenodd" d="M33.6115 19.6123V20.1451H33.5591V19.7417L33.4775 20.088H33.421L33.3394 19.7417V20.1451H33.2849V19.6123H33.3603L33.4482 19.9929L33.5361 19.6123H33.6115ZM33.1278 19.7037V20.1451H33.0818V19.7037H32.9834V19.6123H33.2325V19.7037H33.1278Z" fill="#F79E1B"/>
<path fill-rule="evenodd" clip-rule="evenodd" d="M33.7691 15.6879C33.769 18.2743 32.2715 20.6337 29.9125 21.764C27.5536 22.8942 24.7473 22.5969 22.6855 20.9984C24.338 19.7176 25.3028 17.7596 25.3028 15.6869C25.3028 13.6142 24.338 11.6562 22.6855 10.3755C24.7473 8.7769 27.5536 8.47961 29.9125 9.60988C32.2715 10.7401 33.769 13.0995 33.7691 15.686V15.6879Z" fill="#F79E1B"/>
</svg>
