<svg width="45" height="32" viewBox="0 0 45 32" fill="none" xmlns="http://www.w3.org/2000/svg">
<rect x="0.813965" width="43.9535" height="31.3953" rx="2.51163" fill="white"/>
<mask id="mask0_543_1577" style="mask-type:luminance" maskUnits="userSpaceOnUse" x="0" y="0" width="45" height="32">
<rect x="0.813965" width="43.9535" height="31.3953" rx="2.51163" fill="white"/>
</mask>
<g mask="url(#mask0_543_1577)">
<path fill-rule="evenodd" clip-rule="evenodd" d="M16.5265 8.90946L16.5117 9.19518L22.0391 15.6218L22.2377 15.6534L22.2627 15.641L22.3597 15.4634L20.0023 7.64323L19.6023 7.37598L16.5265 8.90946Z" fill="#0096B8"/>
<path fill-rule="evenodd" clip-rule="evenodd" d="M22.0391 15.6219L22.2374 15.6535L18.1613 9.50729L16.5117 9.19531L22.0391 15.6219Z" fill="#005675"/>
<path fill-rule="evenodd" clip-rule="evenodd" d="M19.602 7.37598L18.1929 9.02011L18.7683 9.26945L20.0021 7.6435V7.64323L19.602 7.37598Z" fill="#0BBBEF"/>
<path fill-rule="evenodd" clip-rule="evenodd" d="M18.7681 9.26922L22.2627 15.6407L22.3597 15.4627L20.0026 7.64355L18.7681 9.26922Z" fill="#007290"/>
<path fill-rule="evenodd" clip-rule="evenodd" d="M25.0852 7.39249L22.7212 17.9681L22.8045 18.1666L22.8442 18.1842L23.1119 18.1147L28.9774 9.3088L28.9709 8.84938L25.3965 7.2207L25.0852 7.39249Z" fill="#81B73E"/>
<path fill-rule="evenodd" clip-rule="evenodd" d="M26.5969 9.50979L22.8452 18.184L23.1122 18.1145L28.978 9.30859L26.5969 9.50979Z" fill="#69931D"/>
<path fill-rule="evenodd" clip-rule="evenodd" d="M22.7212 17.9683L22.8048 18.1668L25.9217 9.14259L25.0852 7.39355L22.7212 17.9683Z" fill="#277933"/>
<path fill-rule="evenodd" clip-rule="evenodd" d="M28.9707 8.85059L26.4614 8.88273L26.5967 9.51106L28.9775 9.30973L28.971 8.85059H28.9707Z" fill="#AECC53"/>
<path fill-rule="evenodd" clip-rule="evenodd" d="M25.0854 7.39305L25.9212 9.14182L26.4616 8.8825L25.3968 7.22168L25.0854 7.39305Z" fill="#69931D"/>
<path fill-rule="evenodd" clip-rule="evenodd" d="M24.6553 4.39551L20.0797 4.44434L19.937 4.71583L22.4652 11.9379L22.6153 12.038L22.6198 12.0387L22.759 11.959L24.951 4.69941L24.6553 4.39551Z" fill="#E4032E"/>
<path fill-rule="evenodd" clip-rule="evenodd" d="M19.937 4.71609L22.4652 11.9382L22.6145 12.0384L21.7101 5.59048L19.937 4.71582V4.71609Z" fill="#791B15"/>
<path fill-rule="evenodd" clip-rule="evenodd" d="M22.5708 5.59111L22.6202 12.0384L22.7594 11.9581L24.9513 4.69922L22.5708 5.59111Z" fill="#B51227"/>
<path fill-rule="evenodd" clip-rule="evenodd" d="M28.2521 23.8842C28.2557 23.8085 28.2601 23.6877 28.2637 23.5227V20.3465L28.2539 20.0384C28.2515 19.9731 28.2486 19.9286 28.2454 19.9048C28.2422 19.8801 28.2372 19.8589 28.2304 19.8397C28.2075 19.7614 28.1574 19.7061 28.0822 19.6725C28.0125 19.6417 27.9094 19.6269 27.7759 19.6259V19.5182L29.5018 19.5176C29.7529 19.5187 29.9794 19.5355 30.1817 19.5701C30.3841 19.6037 30.5469 19.6506 30.6717 19.7105C31.0323 19.8905 31.2106 20.1933 31.2086 20.6234C31.213 21.2392 30.8277 21.6319 30.0302 21.7333L29.8965 21.756C30.0758 21.763 30.3182 21.8253 30.4312 21.853C30.5432 21.8802 30.6529 21.9232 30.7607 21.9821C31.1838 22.2056 31.3923 22.5626 31.3881 23.0573C31.3901 23.6572 31.1118 24.0469 30.5467 24.2313C30.4234 24.2685 30.2684 24.2976 30.0814 24.319C29.8935 24.3403 29.69 24.351 29.4699 24.3515H27.7759V24.2433C27.9755 24.2406 28.1127 24.2086 28.1735 24.1335C28.1986 24.1082 28.2167 24.08 28.2285 24.0478C28.2407 24.0153 28.2481 23.9593 28.2521 23.8842V23.8842ZM28.7834 19.6666V21.682H29.4569C30.2401 21.6771 30.6458 21.3354 30.65 20.6508C30.6556 19.9861 30.2283 19.6617 29.3992 19.6666H28.7834ZM30.7851 23.0031C30.7803 22.5338 30.6189 22.2014 30.2966 22.0155C30.1986 21.9634 30.0744 21.923 29.925 21.8942C29.776 21.8656 29.6112 21.8512 29.4312 21.8508H28.7834V24.2034H29.4312C29.9006 24.2055 30.2438 24.1134 30.4551 23.9206C30.562 23.8275 30.6434 23.7023 30.6999 23.5446C30.7561 23.3869 30.7841 23.2059 30.7851 23.0031V23.0031Z" fill="black"/>
<path fill-rule="evenodd" clip-rule="evenodd" d="M33.8588 24.2141C33.8237 24.1414 33.799 24.0548 33.7887 23.8332L33.7854 23.768L33.744 23.8175C33.6946 23.8753 33.6461 23.9267 33.5991 23.9698C33.5513 24.0132 33.4958 24.0578 33.4339 24.1028C33.2978 24.2081 33.1664 24.2823 33.0407 24.3253C32.9147 24.3684 32.773 24.3892 32.6149 24.3877C32.3395 24.3892 32.1282 24.3204 31.9771 24.1854C31.8929 24.1058 31.8263 24.0054 31.7776 23.8837C31.7296 23.762 31.7046 23.6315 31.7036 23.491C31.7066 22.9737 32.0087 22.6404 32.6269 22.4925C32.7904 22.4525 32.9631 22.4197 33.1449 22.3945C33.3269 22.3688 33.5338 22.3476 33.7647 22.3312L33.7887 21.8802C33.7887 21.7259 33.7819 21.6007 33.7675 21.5057C33.7532 21.4095 33.7294 21.3254 33.6959 21.2546C33.6044 21.0667 33.4173 20.9767 33.1472 20.9767C32.7137 20.9741 32.4788 21.1913 32.4544 21.622C32.4521 21.6908 32.4459 21.7393 32.4372 21.7679C32.429 21.7957 32.4149 21.8159 32.3951 21.8307C32.3518 21.8614 32.2831 21.8788 32.1847 21.8802C31.972 21.8832 31.8924 21.8169 31.896 21.7051C31.8973 21.5884 31.9343 21.4752 32.0082 21.3663C32.0826 21.257 32.1859 21.1616 32.3194 21.081C32.5593 20.9411 32.8666 20.8698 33.2435 20.8683C33.656 20.8698 33.9326 20.9677 34.0836 21.1557C34.1448 21.2344 34.1901 21.3322 34.2194 21.4505C34.249 21.5682 34.2639 21.718 34.2637 21.8999L34.2631 21.9381L34.2598 22.1146L34.2508 22.5806L34.2443 23.2209L34.2379 23.5311C34.2386 23.677 34.2443 23.7882 34.2542 23.9128C34.2634 24.034 34.3047 24.1695 34.3972 24.2051C34.4932 24.2427 34.586 24.2575 34.7624 24.2586C34.8919 24.2562 34.9916 24.2403 35.0593 24.2102C35.1362 24.1761 35.1838 24.1028 35.2044 23.9989C35.2242 23.898 35.2326 23.7437 35.2308 23.5375V21.7299C35.235 21.4836 35.2078 21.3106 35.1412 21.22C35.0759 21.132 34.9545 21.0938 34.7879 21.0959V20.9993L35.7058 20.9296V21.6977L35.7536 21.6078C35.8892 21.354 36.0433 21.174 36.2151 21.0662C36.3865 20.9583 36.6014 20.9044 36.8602 20.9075C37.2497 20.9015 37.5205 21.0385 37.679 21.3125C37.7374 21.4044 37.7796 21.5147 37.8048 21.6444C37.83 21.7739 37.843 21.9392 37.8419 22.1408V23.5375C37.8396 23.7458 37.8478 23.901 37.867 24.0019C37.8868 24.1058 37.9333 24.1785 38.0107 24.2116C38.0749 24.2398 38.224 24.2547 38.351 24.258C38.4703 24.2547 38.5623 24.2388 38.6255 24.2102C38.7005 24.1755 38.7461 24.1023 38.7653 23.9989C38.7841 23.8976 38.7923 23.7437 38.7898 23.5375V20.2536C38.7923 20.0653 38.7847 19.9258 38.7668 19.8357C38.748 19.7416 38.7019 19.6774 38.6266 19.6492C38.5612 19.625 38.463 19.6136 38.3343 19.613V19.5172L39.2888 19.4658C39.2769 19.6888 39.2679 19.9162 39.2615 20.1492C39.2553 20.392 39.2522 20.6042 39.2522 20.7857V22.9919L40.3035 21.7813C40.4523 21.6082 40.5338 21.4628 40.535 21.3462C40.5424 21.1839 40.3868 21.1107 40.1307 21.0973V21.0014H41.4974V21.0987C41.4153 21.1087 41.3439 21.1246 41.283 21.1463C41.217 21.17 41.1493 21.2041 41.0801 21.2481C41.01 21.2926 40.9509 21.3338 40.9035 21.3708C40.855 21.4089 40.7977 21.4633 40.7322 21.5335C40.6665 21.6038 40.5709 21.7101 40.4457 21.8531L40.0987 22.2457L41.0071 23.7478C41.1109 23.9258 41.2063 24.0513 41.294 24.1225C41.3776 24.1909 41.4844 24.2348 41.6129 24.2556V24.3536H40.7819C40.7591 24.3051 40.7276 24.2417 40.6875 24.1641L40.5554 23.9104L40.4541 23.7194L39.782 22.5682L39.2535 23.1898L39.2522 23.5375C39.2497 23.7437 39.2577 23.898 39.2769 23.9989C39.2963 24.1028 39.3425 24.1755 39.4188 24.2102C39.4856 24.2403 39.5846 24.2562 39.7137 24.2586V24.3536H36.9052V24.2586C37.0954 24.2531 37.2262 24.2206 37.2784 24.1473C37.2993 24.1191 37.3153 24.087 37.3267 24.0509C37.3376 24.0147 37.3445 23.9677 37.3477 23.9104C37.3515 23.8654 37.3553 23.8001 37.3596 23.7145C37.3643 23.6285 37.3666 23.5696 37.3671 23.538V22.1814C37.3683 21.8471 37.3342 21.5994 37.2621 21.442C37.1524 21.1943 36.9548 21.0702 36.6745 21.0691C36.3617 21.0681 36.1125 21.2244 35.9278 21.5335C35.8582 21.6503 35.8041 21.7833 35.7649 21.9316C35.7264 22.0799 35.7061 22.2265 35.7058 22.3699V23.5375C35.7034 23.7458 35.7116 23.901 35.7306 24.0019C35.7504 24.1058 35.7969 24.1785 35.8744 24.2116C35.9422 24.2413 36.0427 24.2562 36.174 24.2586V24.3536H34.7926C34.6702 24.358 34.4365 24.3645 34.321 24.3629C34.1996 24.361 34.1412 24.3476 34.0307 24.3387C33.9326 24.3085 33.8912 24.2818 33.8588 24.2141M32.23 23.4705C32.2323 23.6907 32.2832 23.8691 32.3848 24.0037C32.4867 24.1392 32.6243 24.2089 32.7944 24.2119C32.9661 24.2095 33.1288 24.1624 33.2803 24.0715C33.4317 23.98 33.5514 23.8578 33.6378 23.7065C33.6905 23.61 33.7289 23.4859 33.7529 23.335C33.777 23.1856 33.7888 22.9993 33.7888 22.7762V22.43C33.481 22.4582 33.2609 22.4888 33.1012 22.5245C32.94 22.5601 32.7979 22.6111 32.6738 22.6783C32.3799 22.8316 32.2323 23.0977 32.23 23.4705" fill="black"/>
<path fill-rule="evenodd" clip-rule="evenodd" d="M5.20423 22.3169V23.5192C5.20184 23.712 5.21243 23.8554 5.23576 23.949C5.25944 24.0424 5.3102 24.1042 5.38885 24.1344C5.46716 24.1645 5.58792 24.182 5.75034 24.1848V24.353H3.95312V24.1848C4.1061 24.182 4.21935 24.1645 4.29322 24.1344C4.36663 24.1042 4.4141 24.0424 4.43584 23.949C4.45735 23.8554 4.46725 23.712 4.46497 23.5192V20.3579C4.46702 20.165 4.45758 20.0216 4.43675 19.9281C4.4158 19.8341 4.36993 19.7719 4.29982 19.7407C4.22948 19.7095 4.12146 19.6913 3.97578 19.6858V19.5176H5.68763C6.2647 19.5151 6.68754 19.622 6.95592 19.8385C7.22443 20.0552 7.35714 20.396 7.35395 20.8624C7.356 21.5172 7.11322 21.9459 6.62596 22.1487C6.49894 22.2006 6.33686 22.2417 6.14006 22.2713C5.94281 22.301 5.72382 22.3164 5.48287 22.3169H5.20423ZM5.20434 22.1297H5.50027C5.85573 22.1281 6.11718 22.0402 6.28506 21.8645C6.37623 21.7631 6.44532 21.6296 6.49267 21.4649C6.53956 21.3007 6.56346 21.1128 6.56369 20.9011C6.56187 20.1049 6.22986 19.7063 5.56856 19.7052H5.20434V22.1297Z" fill="black"/>
<path fill-rule="evenodd" clip-rule="evenodd" d="M10.2478 22.5199H8.1569C8.15895 22.7543 8.17204 22.9511 8.19594 23.1099C8.21973 23.2683 8.25809 23.4131 8.31067 23.5445C8.48436 23.97 8.75263 24.1826 9.11572 24.1826C9.32128 24.1812 9.5076 24.1178 9.67503 23.9917C9.84212 23.8657 9.98132 23.6841 10.0921 23.4483L10.2401 23.5511C10.0946 23.8557 9.91667 24.0793 9.70667 24.2222C9.49667 24.3646 9.24058 24.4355 8.93793 24.4339C8.46205 24.4274 8.02419 24.2677 7.75011 23.9547C7.4758 23.6415 7.33603 23.2123 7.33057 22.6682C7.33603 22.1197 7.47125 21.6861 7.73611 21.3665C8.00074 21.0471 8.42335 20.8839 8.87886 20.877C9.18173 20.8776 9.47425 20.9501 9.68186 21.0946C9.88947 21.2385 10.0426 21.4497 10.1412 21.7277C10.1734 21.8197 10.198 21.9249 10.2145 22.0443C10.2312 22.1629 10.2423 22.3216 10.2478 22.5199M8.16267 22.3334H9.47069C9.46534 22.1345 9.45532 21.9744 9.4403 21.8532C9.42561 21.7315 9.40194 21.6233 9.37018 21.5278C9.25955 21.1896 9.08996 21.0219 8.86118 21.0248C8.60452 21.0274 8.41318 21.2162 8.28696 21.592C8.25463 21.6895 8.22891 21.7963 8.2091 21.9121C8.18953 22.0279 8.17393 22.1683 8.16267 22.3334" fill="black"/>
<path fill-rule="evenodd" clip-rule="evenodd" d="M10.3815 20.9689L11.5413 20.8849C11.5476 21.0066 11.5522 21.1084 11.5553 21.191C11.5585 21.2742 11.56 21.3468 11.56 21.4102V21.6045C11.812 21.1204 12.1164 20.876 12.4731 20.8721C12.6272 20.8751 12.7525 20.9224 12.8486 21.0134C12.9449 21.1049 12.9945 21.2221 12.9973 21.3647C12.9952 21.4834 12.9535 21.5783 12.8725 21.65C12.7915 21.7211 12.685 21.7583 12.5533 21.7598C12.3949 21.7651 12.2982 21.6965 12.2633 21.5526C12.2404 21.4635 12.2169 21.4032 12.1923 21.371C12.1679 21.3389 12.1321 21.324 12.0843 21.3256H12.0721C11.9506 21.3364 11.8356 21.4378 11.7264 21.6307C11.6772 21.7266 11.6403 21.8325 11.6156 21.9486C11.5909 22.0649 11.5786 22.1989 11.5786 22.3503V23.5496C11.5761 23.7411 11.5851 23.882 11.6051 23.973C11.625 24.0634 11.6705 24.1227 11.7411 24.1511C11.812 24.1787 11.9221 24.1945 12.0721 24.1979V24.3533H10.3569V24.1979C10.4967 24.1984 10.6004 24.1842 10.6675 24.155C10.7352 24.1258 10.7786 24.0649 10.7987 23.973C10.8189 23.8799 10.8278 23.739 10.826 23.5496V21.7534C10.8314 21.4862 10.8062 21.3127 10.7495 21.2325C10.6928 21.1524 10.5702 21.1163 10.3815 21.1248V20.9689Z" fill="black"/>
<path fill-rule="evenodd" clip-rule="evenodd" d="M14.3752 20.8849L14.3814 21.5268C14.6312 21.0947 14.9891 20.8765 15.455 20.8721C15.9287 20.8691 16.2209 21.0956 16.3309 21.5531C16.4648 21.3171 16.618 21.1446 16.7897 21.0352C16.9615 20.925 17.1623 20.8705 17.392 20.8721C17.755 20.874 18.0224 20.9997 18.1942 21.2479C18.2611 21.3424 18.3091 21.4571 18.3375 21.5932C18.3661 21.7295 18.38 21.9062 18.3792 22.1234V23.5496C18.3771 23.7391 18.3862 23.88 18.4062 23.9724C18.4262 24.065 18.4701 24.1259 18.5372 24.155C18.6048 24.1842 18.7084 24.1985 18.8482 24.1975V24.3533H17.176V24.1975C17.3098 24.1985 17.409 24.1842 17.4738 24.155C17.5387 24.1259 17.5809 24.065 17.6 23.9724C17.6198 23.88 17.6285 23.7391 17.6266 23.5496V22.1297C17.6281 21.7891 17.5881 21.5432 17.5071 21.3924C17.426 21.2411 17.2951 21.1673 17.1143 21.1703C16.8974 21.1658 16.7143 21.2846 16.5654 21.5268C16.437 21.7287 16.373 21.9473 16.3739 22.1817V23.5496C16.3721 23.7391 16.3809 23.88 16.4005 23.9724C16.4203 24.065 16.463 24.1259 16.5285 24.155C16.5943 24.1842 16.6948 24.1985 16.8307 24.1975V24.3533H15.1771V24.1975C15.3108 24.1985 15.4101 24.1842 15.475 24.155C15.5398 24.1259 15.5819 24.065 15.6011 23.9724C15.6207 23.88 15.6297 23.7391 15.6274 23.5496V22.1234C15.6306 21.4814 15.4641 21.1638 15.1277 21.1703C14.9185 21.1782 14.743 21.2826 14.6019 21.4829C14.4604 21.6837 14.3869 21.9339 14.3814 22.2335V23.5496C14.3795 23.7411 14.3881 23.8834 14.4077 23.9755C14.4272 24.0679 14.4692 24.1282 14.5339 24.1565C14.5988 24.1847 14.6979 24.1985 14.8318 24.1975V24.3533H13.1597V24.1975C13.2997 24.1985 13.4029 24.1847 13.4705 24.1565C13.5378 24.1282 13.5816 24.0679 13.6016 23.9755C13.6218 23.8834 13.6308 23.7411 13.6285 23.5496V21.7475C13.6351 21.4834 13.6098 21.3127 13.5529 21.2346C13.4962 21.156 13.3693 21.1199 13.1722 21.1248V20.969L14.3752 20.8849Z" fill="black"/>
<path fill-rule="evenodd" clip-rule="evenodd" d="M23.2343 21.1811V23.3463C23.2341 23.4872 23.2391 23.6039 23.249 23.6964C23.2589 23.7888 23.2746 23.8665 23.296 23.9297C23.3219 24.0021 23.3624 24.0599 23.4168 24.1035C23.4716 24.1465 23.5321 24.1687 23.598 24.1697C23.73 24.1677 23.8738 24.1004 24.0302 23.969L24.1165 24.1305C23.8687 24.3492 23.5871 24.4571 23.2714 24.455C22.9308 24.4496 22.6986 24.3304 22.574 24.0985C22.5497 24.0471 22.5306 23.9887 22.5171 23.9224C22.5039 23.8567 22.4943 23.7682 22.4891 23.6558C22.4839 23.544 22.4812 23.3932 22.4815 23.2038V21.1811H22.1299V20.9867C22.2644 20.9812 22.3781 20.9515 22.4716 20.8976C22.5651 20.8433 22.6465 20.7587 22.7162 20.643C22.7707 20.5549 22.8158 20.457 22.8509 20.3497C22.8863 20.2423 22.9174 20.1088 22.9444 19.949L23.2529 19.917C23.2488 20.0025 23.2451 20.0896 23.2425 20.1781C23.2399 20.2661 23.2377 20.3724 23.2364 20.4965C23.235 20.6206 23.2343 20.7799 23.2343 20.9733H23.9809V21.1811H23.2343Z" fill="black"/>
<path fill-rule="evenodd" clip-rule="evenodd" d="M22.1271 24.2158V24.3528C21.9467 24.3652 21.8738 24.3652 21.684 24.3652C21.5335 24.3652 21.3775 24.3626 21.2481 24.3117C21.1681 24.28 21.1235 24.2529 21.0637 24.1871C21.0221 24.1174 20.9955 24.1133 20.9822 23.92C20.8229 24.101 20.6572 24.2335 20.4849 24.3192C20.3123 24.4042 20.1265 24.4463 19.9273 24.4453C19.6312 24.4419 19.3996 24.3562 19.2322 24.1876C19.065 24.019 18.9802 23.7871 18.9771 23.4922C18.976 22.9358 19.3051 22.5901 19.9641 22.4551C20.2614 22.3943 20.5985 22.3533 20.9761 22.3315V21.9101C20.9791 21.5728 20.9451 21.3389 20.8743 21.2088C20.8032 21.0787 20.6767 21.0165 20.4948 21.0225C20.3015 21.0179 20.1637 21.0916 20.0814 21.2425C20.0516 21.2949 20.0297 21.3542 20.0159 21.4221C20.0022 21.4893 19.9911 21.5827 19.9828 21.7029C19.9779 21.8187 19.946 21.9007 19.887 21.9493C19.8282 21.9982 19.7346 22.0219 19.6064 22.0209C19.3204 22.0185 19.1766 21.919 19.1745 21.7226C19.1754 21.6079 19.2092 21.4981 19.2757 21.3943C19.342 21.2899 19.4359 21.1984 19.5572 21.1193C19.814 20.9532 20.1513 20.8711 20.5691 20.8731C20.9936 20.8711 21.298 20.9596 21.482 21.1391C21.565 21.2212 21.6259 21.326 21.6648 21.4532C21.7038 21.5808 21.723 21.744 21.7225 21.9433L21.7162 22.5071L21.7102 23.0709C21.7052 23.2559 21.7029 23.3725 21.7041 23.421C21.7018 23.655 21.7088 23.8256 21.725 23.933C21.7413 24.0407 21.759 24.0882 21.8262 24.1466C21.944 24.2174 22.0451 24.2153 22.1271 24.2158M20.9762 22.9804V22.4814C20.5345 22.5126 20.2211 22.5985 20.0361 22.7385C19.8513 22.879 19.7614 23.0976 19.767 23.3949C19.7688 23.6283 19.8144 23.8133 19.9036 23.9502C19.9925 24.0873 20.1137 24.157 20.2667 24.1599C20.3922 24.1589 20.5081 24.1209 20.6145 24.0457C20.7208 23.971 20.8042 23.8661 20.8651 23.7322C20.9047 23.6501 20.9332 23.5502 20.951 23.4314C20.9681 23.3127 20.9767 23.1624 20.9762 22.9804" fill="black"/>
<path fill-rule="evenodd" clip-rule="evenodd" d="M27.4388 24.2163V24.3533C27.2583 24.3657 27.1854 24.3662 26.9957 24.3662C26.845 24.3662 26.6894 24.3637 26.5596 24.3127C26.4796 24.2811 26.4351 24.2544 26.3755 24.1876C26.3337 24.1184 26.3071 24.1143 26.2939 23.921C26.1345 24.1015 25.9688 24.2345 25.7965 24.3201C25.6239 24.4047 25.438 24.4473 25.2389 24.4463C24.9427 24.4427 24.7112 24.3567 24.5439 24.1886C24.3767 24.0199 24.2919 23.788 24.2886 23.4932C24.2877 22.9368 24.6167 22.5912 25.2757 22.4561C25.573 22.3953 25.9102 22.3542 26.2876 22.3325V21.9111C26.2907 21.5738 26.2566 21.3399 26.1858 21.2093C26.1148 21.0792 25.9883 21.0175 25.8064 21.0234C25.6131 21.019 25.4753 21.0927 25.393 21.2434C25.3632 21.2959 25.3412 21.3552 25.3275 21.423C25.3139 21.4902 25.3027 21.5837 25.2945 21.7039C25.2895 21.8191 25.2576 21.9012 25.1986 21.9502C25.1398 21.9991 25.0463 22.0228 24.9179 22.0219C24.6321 22.0195 24.4882 21.9201 24.4861 21.7237C24.487 21.6089 24.5208 21.4991 24.5872 21.3953C24.6535 21.291 24.7475 21.1994 24.8687 21.1208C25.1256 20.9542 25.463 20.872 25.8806 20.8741C26.3051 20.872 26.6096 20.9605 26.7936 21.1401C26.8766 21.2222 26.9375 21.3271 26.9763 21.4541C27.0152 21.5817 27.0346 21.745 27.034 21.9438L27.0279 22.5081L27.0218 23.0719C27.0168 23.2568 27.0146 23.3735 27.0156 23.4219C27.0134 23.6559 27.0205 23.8265 27.0365 23.9339C27.0529 24.0417 27.0706 24.0893 27.1378 24.1475C27.2555 24.2184 27.3567 24.2158 27.4388 24.2163M26.2875 22.9814V22.4818C25.8458 22.5135 25.5326 22.5995 25.3475 22.7394C25.1623 22.88 25.0727 23.0985 25.0783 23.3958C25.0802 23.6293 25.1258 23.8142 25.2149 23.9511C25.3039 24.0882 25.4251 24.1579 25.578 24.1608C25.7036 24.1598 25.8195 24.1218 25.9259 24.0466C26.0321 23.9719 26.1157 23.867 26.1763 23.7331C26.2162 23.6509 26.2446 23.551 26.2621 23.4323C26.2796 23.3136 26.2881 23.1633 26.2875 22.9814" fill="black"/>
</g>
</svg>
