<svg width="14" height="14" viewBox="0 0 14 14" fill="none" xmlns="http://www.w3.org/2000/svg">
<g clip-path="url(#clip0_543_1626)">
<path fill-rule="evenodd" clip-rule="evenodd" d="M9.88761 8.27003C9.72868 8.19056 8.94948 7.80763 8.80441 7.7543C8.65934 7.7015 8.55374 7.67536 8.44761 7.8343C8.34201 7.99216 8.03854 8.3495 7.94628 8.4551C7.85348 8.56123 7.76121 8.57403 7.60281 8.4951C7.44441 8.4151 6.93348 8.24816 6.32814 7.70843C5.85721 7.28816 5.53881 6.76923 5.44654 6.6103C5.35428 6.4519 5.43641 6.36603 5.51588 6.2871C5.58734 6.21616 5.67428 6.10203 5.75374 6.00976C5.83321 5.91696 5.85934 5.85083 5.91214 5.7447C5.96548 5.6391 5.93881 5.54683 5.89881 5.46736C5.85934 5.3879 5.54254 4.60763 5.41028 4.2903C5.28174 3.9815 5.15108 4.02363 5.05401 4.0183C4.96121 4.01403 4.85561 4.01296 4.75001 4.01296C4.64441 4.01296 4.47268 4.05243 4.32761 4.21136C4.18201 4.36976 3.77294 4.75323 3.77294 5.5335C3.77294 6.31323 4.34041 7.06683 4.41988 7.17296C4.49934 7.27856 5.53721 8.87963 7.12708 9.56603C7.50574 9.72923 7.80068 9.82683 8.03054 9.89936C8.41028 10.0204 8.75588 10.0034 9.02894 9.9623C9.33294 9.91696 9.96654 9.57883 10.0988 9.2087C10.2305 8.83856 10.2305 8.52123 10.1911 8.4551C10.1516 8.38896 10.046 8.3495 9.88708 8.27003H9.88761ZM6.99588 12.2183H6.99374C6.04944 12.2185 5.12247 11.9646 4.31001 11.4834L4.11801 11.3692L2.12228 11.893L2.65508 9.94736L2.52974 9.7479C2.00182 8.90755 1.72243 7.93498 1.72388 6.94256C1.72494 4.0359 4.08974 1.6711 6.99801 1.6711C8.40601 1.6711 9.72974 2.22043 10.7249 3.2167C11.2158 3.70554 11.6049 4.28687 11.8696 4.92704C12.1344 5.56722 12.2696 6.25354 12.2673 6.9463C12.2663 9.85296 9.90148 12.2183 6.99588 12.2183ZM11.4823 2.4599C10.8946 1.86839 10.1955 1.39938 9.42526 1.08006C8.65505 0.760732 7.82912 0.597435 6.99534 0.599631C3.49988 0.599631 0.654009 3.44496 0.652943 6.94203C0.652409 8.0599 0.944143 9.1511 1.49934 10.1127L0.599609 13.3996L3.96174 12.5175C4.89181 13.0242 5.93406 13.2897 6.99321 13.2898H6.99588C10.4913 13.2898 13.3372 10.4444 13.3383 6.94683C13.3409 6.11338 13.1781 5.28768 12.8596 4.51752C12.541 3.74735 12.0729 3.04799 11.4823 2.4599Z" fill="white"/>
</g>
<defs>
<clipPath id="clip0_543_1626">
<rect width="12.8" height="12.8" fill="white" transform="translate(0.599609 0.599609)"/>
</clipPath>
</defs>
</svg>
