<svg width="14" height="14" viewBox="0 0 14 14" fill="none" xmlns="http://www.w3.org/2000/svg">
<path d="M5.83333 12.25H8.16667M11.0833 12.25V2.91667C11.0833 2.60725 10.9604 2.3105 10.7416 2.09171C10.5228 1.87292 10.2261 1.75 9.91667 1.75H4.08333C3.77391 1.75 3.47717 1.87292 3.25838 2.09171C3.03958 2.3105 2.91667 2.60725 2.91667 2.91667V12.25H11.0833ZM11.0833 12.25H12.25H11.0833ZM11.0833 12.25H8.16667H11.0833ZM2.91667 12.25H1.75H2.91667ZM2.91667 12.25H5.83333H2.91667ZM5.25 4.08333H5.83333H5.25ZM5.25 6.41667H5.83333H5.25ZM8.16667 4.08333H8.75H8.16667ZM8.16667 6.41667H8.75H8.16667ZM5.83333 12.25V9.33333C5.83333 9.17862 5.89479 9.03025 6.00419 8.92085C6.11358 8.81146 6.26196 8.75 6.41667 8.75H7.58333C7.73804 8.75 7.88642 8.81146 7.99581 8.92085C8.10521 9.03025 8.16667 9.17862 8.16667 9.33333V12.25H5.83333Z" stroke="white" stroke-linecap="round" stroke-linejoin="round"/>
</svg>
