<svg width="26" height="22" viewBox="0 0 26 22" fill="none" xmlns="http://www.w3.org/2000/svg">
<path d="M6.80762 17.3322C7.56786 17.3322 8.19071 17.9684 8.19071 18.7542C8.19071 19.5306 7.56786 20.1667 6.80762 20.1667C6.03822 20.1667 5.41537 19.5306 5.41537 18.7542C5.41537 17.9684 6.03822 17.3322 6.80762 17.3322ZM17.1121 17.3322C17.8723 17.3322 18.4952 17.9684 18.4952 18.7542C18.4952 19.5306 17.8723 20.1667 17.1121 20.1667C16.3427 20.1667 15.7198 19.5306 15.7198 18.7542C15.7198 17.9684 16.3427 17.3322 17.1121 17.3322ZM2.54687 1.83348L2.64021 1.84138L4.82476 2.17722C5.13619 2.23428 5.36517 2.49528 5.39265 2.81333L5.56668 4.90878C5.59416 5.20906 5.83231 5.43358 6.12541 5.43358H18.4954C19.0541 5.43358 19.4205 5.63002 19.7869 6.06034C20.1532 6.49065 20.2173 7.10806 20.1349 7.66841L19.2648 13.8051C19.0999 14.9847 18.1107 15.8537 16.9474 15.8537H6.95435C5.73613 15.8537 4.72859 14.9005 4.62783 13.6657L3.78516 3.46816L2.40207 3.22494C2.03569 3.15946 1.77922 2.79462 1.84334 2.42044C1.90745 2.03783 2.26467 1.78432 2.64021 1.84138L2.54687 1.83348ZM15.4819 8.89387H12.9447C12.56 8.89387 12.2577 9.20257 12.2577 9.59547C12.2577 9.97901 12.56 10.2971 12.9447 10.2971H15.4819C15.8666 10.2971 16.1688 9.97901 16.1688 9.59547C16.1688 9.20257 15.8666 8.89387 15.4819 8.89387Z" fill="white"/>
<ellipse cx="21" cy="5.96297" rx="4" ry="3.99739" fill="#DB3539" stroke="#202128" stroke-width="1.5"/>
</svg>
