<svg width="22" height="22" viewBox="0 0 22 22" fill="none" xmlns="http://www.w3.org/2000/svg">
<path fill-rule="evenodd" clip-rule="evenodd" d="M10.7604 1.83337C15.6829 1.83337 19.6869 5.83737 19.6869 10.7599C19.6869 13.0823 18.7957 15.2005 17.3372 16.7902L20.207 19.654C20.4756 19.9226 20.4765 20.3571 20.208 20.6257C20.0741 20.7613 19.8972 20.8283 19.7212 20.8283C19.5461 20.8283 19.3701 20.7613 19.2354 20.6275L16.3309 17.7311C14.803 18.9547 12.8657 19.6873 10.7604 19.6873C5.83792 19.6873 1.83301 15.6824 1.83301 10.7599C1.83301 5.83737 5.83792 1.83337 10.7604 1.83337ZM10.7604 3.20837C6.59601 3.20837 3.20801 6.59546 3.20801 10.7599C3.20801 14.9243 6.59601 18.3123 10.7604 18.3123C14.9239 18.3123 18.3119 14.9243 18.3119 10.7599C18.3119 6.59546 14.9239 3.20837 10.7604 3.20837Z" fill="white"/>
</svg>
