<svg width="20" height="22" viewBox="0 0 20 22" fill="none" xmlns="http://www.w3.org/2000/svg">
<g clip-path="url(#clip0_784_1168)">
<path d="M9.625 11C12.6629 11 15.125 8.53789 15.125 5.5C15.125 2.46211 12.6629 0 9.625 0C6.58711 0 4.125 2.46211 4.125 5.5C4.125 8.53789 6.58711 11 9.625 11ZM13.475 12.375H12.7574C11.8035 12.8133 10.7422 13.0625 9.625 13.0625C8.50781 13.0625 7.45078 12.8133 6.49258 12.375H5.775C2.58672 12.375 0 14.9617 0 18.15V19.9375C0 21.0762 0.923828 22 2.0625 22H17.1875C18.3262 22 19.25 21.0762 19.25 19.9375V18.15C19.25 14.9617 16.6633 12.375 13.475 12.375Z" fill="white"/>
</g>
<defs>
<clipPath id="clip0_784_1168">
<rect width="19.25" height="22" fill="white"/>
</clipPath>
</defs>
</svg>
